<?xml version="1.0" encoding="utf-8"?>
<!-- Generator: Adobe Illustrator 17.0.0, SVG Export Plug-In . SVG Version: 6.00 Build 0)  -->
<!DOCTYPE svg PUBLIC "-//W3C//DTD SVG 1.1//EN" "http://www.w3.org/Graphics/SVG/1.1/DTD/svg11.dtd">
<svg version="1.1" id="Layer_1" xmlns="http://www.w3.org/2000/svg" xmlns:xlink="http://www.w3.org/1999/xlink" x="0px" y="0px"
	 width="300px" height="300px" viewBox="0 0 300 300" style="enable-background:new 0 0 300 300;" xml:space="preserve">
<style type="text/css">
	.st0{fill:#DAC0D0;}
	.st1{fill:#696969;}
</style>
<path class="st0" d="M56.3,131v29.1v18.2l11.6,3.9l14.7,2.3l18.6,1.9l24.8,1.9h30.6h21.2l29.6-2.3l21.4-2.7l15.8-1.9l5-3.1v-7.5
	l1.9-29.3v-7.4l-3.1-4.7h-9.3l-13.2,1.6l-25.6,3.9c0,0-20.3,1.6-21.8,1.6c-1.5,0-23.2-1.2-27.8-1.2s-36.4-0.4-36.4-0.4
	s-20.2-0.8-23.3-1.2c-3.1-0.4-24-2.7-24-2.7h-9.3H56.3z"/>
<g>
	<path class="st1" d="M268.9,176.4c-1.4,3.6-3.4,6.6-7.4,7.6c-1.3,0.3-2.6,0.4-4.1,0.6c0,1.5,0,3.1,0,4.6c0,3.7-1.8,6.2-5.2,7.5
		c-1.2,0.4-1.5,1-1.4,2.2c0.3,3,0.5,6,0.8,9c0.3,3-0.8,4.8-3.1,5.1c-2.1,0.2-3.6-1.3-3.8-4.2c-0.3-3.3-0.6-6.6-0.9-9.7
		c-9.4,1.1-18.7,2.2-28,3.1c-5.2,0.5-10.5,0.8-15.8,1.1c-2.7,0.2-4.3-1.2-4.4-3.3c-0.1-2.1,1.5-3.5,4.2-3.6c15.2-1,30.4-2,45.4-5.1
		c0.2,0,0.3,0,0.5-0.1c5.2-1.1,5.2-1.2,4.6-6.6c-0.5-0.1-1-0.2-1.5-0.3c-4.7-0.6-8.4-4.1-8.7-8.8c-0.3-4.3-0.2-8.7,0-13
		c0.2-4.7,3.5-8.2,8.2-9c0.7-0.1,1.4-0.2,2.1-0.4c0-3.4,0-6.8,0-10.5c-3.2,0.6-6.2,1.2-9.2,1.7c-5,0.8-10.1,1.4-15.2,2.1
		c-2.4,0.3-4-0.8-4.4-2.8c-0.4-2.2,0.8-3.7,3.4-4.1c4.3-0.6,8.6-1.1,13.3-1.7c-3.8-6.9-11.1-6.1-16.6-8.9c-1.9,5-5.1,8-10.3,7.9
		c-5.1,0-8.3-2.9-10.1-7.9c-4.2,1.4-8.4,2.6-12.5,4.4c-3.4,1.4-5.1,5-4.8,9c6.5-0.3,12.9-0.7,19.4-1c1.6-0.1,3.2-0.2,4.9-0.3
		c2.4,0,3.8,1.3,3.9,3.4c0,2-1.4,3.4-3.8,3.6c-5.6,0.4-11.3,0.7-16.9,0.9c-10,0.4-20,0.7-30.3,1c7.1,16.3,6.1,32.1-2.9,47.7
		c2,0,3.7,0,5.3,0c6-0.1,12.1-0.3,18.1-0.4c2.8-0.1,4.4,1.1,4.5,3.2c0.1,2.1-1.5,3.6-4.4,3.7c-1.1,0.1-2.1,0-3.4,0
		c-0.2,1.9-0.3,3.6-0.5,5.3c-0.2,2.2-1.7,3.6-3.6,3.6c-2,0-3.4-1.7-3.4-3.9c0-0.8,0.1-1.5,0.2-2.3c0.1-0.7,0.1-1.4,0.2-2.3
		c-17.4,0-34.8,0-52.2,0c-0.2,1.7-0.2,3.3-0.5,5c-0.3,2.4-1.9,3.7-3.8,3.5c-2-0.2-3.2-1.8-3.1-4.2c0.1-1.5,0.2-3.1,0.2-4.5
		c-17.3-1.5-34.3-2.9-51.8-4.4c-0.3,2.8-0.6,6-0.8,9.2c-0.1,1.9-1,3.3-2.9,3.7c-2.2,0.5-4.2-1.2-4.1-3.8c0.2-3.5,0.5-7.1,0.8-10.2
		c-3.1-1.6-6.3-2.6-8.8-4.6c-2.9-2.3-1.6-6.2-2-9.7c-5.8,0.1-9.6-2.7-11.4-8.1c0-8.5,0-17,0-25.6c1.9-5.3,5.6-8,11.2-7.6
		c1.8-5.7,4.7-8.1,9.1-7.4c1.5,0.2,3,0.6,4.5,0.9c0.8,0.2,1.7,0.3,2.6,0.4c0.2-0.4,0.4-0.8,0.6-1.2c2-5.2,5.7-8.6,10.9-10.3
		c3.5-1.1,7.1-2.2,10.6-3.4c0.7-0.2,1.6-1,1.6-1.5c0-0.9-0.4-2.2-1-2.7c-7.2-4.9-10.6-11.7-10.2-20.4c0.1-3-0.2-6.1,0.3-9
		c1.7-11,11.1-18.9,21.8-18.6c11.1,0.2,20.1,8.4,21.3,19.7c0.4,4,0.3,8.1,0,12.1c-0.6,6.8-4,12.1-9.7,15.9c-1.3,0.9-2,1.9-1.5,3.2
		c0.3,0.7,1.3,1.3,2.2,1.6c3,1.1,6.1,1.8,9,3c2.8,1.1,5.4,2.5,8.4,3.9c4.5-4,11-4.6,16.8-6.9c0.8-0.3,1.8-1,2-1.7
		c0.5-1.2-0.2-2.2-1.4-3c-6.5-4.4-10-10.5-9.9-18.4c0-4.2-0.1-8.6,0.8-12.7c2.2-10.4,12.4-17.6,22.7-16.6c11.4,1.2,19.7,9.9,20.1,21
		c0.1,2.8,0,5.6,0,8.4c0,7.8-3.4,13.9-9.8,18.2c-1.3,0.9-1.9,1.9-1.4,3.2c0.3,0.7,1.3,1.3,2.1,1.6c3.1,1.1,6.2,1.9,9.2,3.1
		c2.7,1.1,5.3,2.5,8.1,3.8c4.5-4,10.9-4.6,16.6-6.9c0.9-0.3,1.9-1,2.2-1.8c0.5-1.3-0.4-2.2-1.5-2.9c-6.4-4.4-9.9-10.6-9.8-18.4
		c0-3.6-0.2-7.3,0.4-10.9c1.7-11,11.5-18.9,22.3-18.3c11.3,0.6,20.2,9.2,20.9,20.5c0.2,3.5,0.3,7.1,0,10.7c-0.5,7.1-4,12.6-9.9,16.5
		c-1.2,0.8-1.9,1.7-1.4,3c0.3,0.7,1.2,1.4,2.1,1.7c3,1.1,6,2,9,2.9c5.9,1.7,10.1,5.2,12.2,11c9-0.5,11.1,0.6,12.5,6.9
		c5.6-0.3,9.5,2.3,11.4,7.7C268.9,159.4,268.9,167.9,268.9,176.4z M144.6,149.9c0.6,1,1,1.5,1.3,2c6,9.8,7.4,20.2,3.7,31.1
		c-1.4,4.1-3.6,4.7-7,2.1c-6.8-5.3-13.6-10.7-20.5-16c-2-1.5-2.9-3.2-2.8-5.7c0.1-4.6,0-9.2,0-14.1c-2.4,0-4.5,0-6.9,0
		c0,0.7-0.1,1.5-0.1,2.2c0,4.3-0.1,8.5,0,12.8c0,1.9-0.7,3.2-2.2,4.3c-7.1,5.4-14.1,10.9-21.1,16.4c-3.4,2.6-5.7,2-7-2.1
		c-3.9-11.7-2.3-22.7,4.8-32.9c0.5-0.7,1-1.4,1.7-2.4c-2.4-0.2-4.4-0.6-6.4-0.5c-0.9,0-2.2,0.6-2.5,1.3c-1.8,3.7-3.6,7.5-5.1,11.4
		c-1,2.6-2.4,3.9-4.4,3.3c-2.2-0.6-3.1-2.5-2.2-5.2c1.3-3.9,2.9-7.8,4.3-11.6c-7.5-1.2-15.1-2.4-22.8-3.6c0,3.6,0,7,0,10.3
		c6.6,1.1,9.9,4.1,10.2,9.4c0.2,4.3,0.2,8.7,0,13c-0.3,4.7-3.9,8.3-8.7,8.9c-0.5,0.1-1,0.2-1.5,0.2c-0.7,5.3-0.6,5.5,4.3,6.6
		c0.6,0.1,1.2,0.3,1.8,0.4c5.1,0.8,10.3,1.7,15.9,2.6c-0.7-1.6-1.2-2.5-1.5-3.5c-1.2-4.6-2.6-9.2-3.6-13.9c-0.4-2.1,1.1-3.7,3-4
		c1.8-0.2,3.3,1,3.8,3c0.1,0.6,0.2,1.2,0.3,1.8c0.9,5.7,2.8,11.1,5.9,16c0.3,0.5,0.9,1.2,1.4,1.3c3,0.3,6.1,0.5,8.8,0.7
		c0.6-1.4,0.9-2.7,1.6-3.3c5.1-4.1,10.3-8.2,15.6-12.1c2.3-1.7,5.2-0.1,5.3,2.8c0.1,3.1,0,6.2,0,9.3c0,1.5,0,3,0,4.6
		c2.5,0.1,4.6,0.2,7,0.3c0-4.5,0-8.7,0-12.8c0-1.9,0.1-3.7,2.1-4.5c1.8-0.8,3.2,0.1,4.7,1.2c4.2,3.3,8.4,6.6,12.6,9.9
		c3.1,2.4,3.3,3,1.8,6.9c2.7,0,5.3,0.1,7.9-0.1c0.6,0,1.4-0.6,1.8-1.1c9.7-12.2,11.1-32,3.3-45.4c-0.3-0.6-1.1-1.2-1.7-1.2
		C149.6,149.8,147.3,149.9,144.6,149.9z M107.5,95.7c0-1.3,0-2.6,0-3.9c-0.3-8.5-6.9-14.9-15.1-14.8c-8.2,0.1-14.5,6.7-14.6,15.2
		c0,2.4,0,4.8,0,7.2c0.1,8.2,6.6,14.9,14.6,15.1c7.8,0.2,14.8-6.5,15.1-14.6C107.5,98.5,107.5,97.1,107.5,95.7z M166.9,95.9
		c-0.1,0-0.2,0-0.3,0c0-1.5,0-3.1,0-4.6c-0.3-7.8-6.5-14-14.3-14.3c-7.6-0.3-14.4,5.5-15.1,13.2c-0.3,3.6-0.3,7.3,0,10.9
		c0.6,7.1,6.5,12.7,13.8,13.4c6.5,0.6,13.4-4.3,15.1-10.9C166.7,101.1,166.7,98.5,166.9,95.9z M196.2,95.7c0,0,0.1,0,0.1,0
		c0,1.4,0,2.8,0,4.2c0.2,7.8,6.8,14.4,14.6,14.6c7.7,0.2,14.7-6.3,15.1-14.1c0.1-3,0.1-6,0-9c-0.3-7.7-6.2-13.6-13.9-14.3
		c-7.2-0.6-14,4.6-15.4,12C196.3,91.2,196.4,93.5,196.2,95.7z M176.3,142.6c0.2-1.7,0.1-3.1,0.6-4.3c1.2-2.8-0.3-4.2-2.4-5.1
		c-4.1-1.6-8.2-2.9-12.4-4.3c-1.9,4.9-5.1,7.8-10.2,7.9c-5.2,0-8.4-3-10.3-7.8c-4,1.3-8,2.5-11.9,4c-3.8,1.5-5.8,5.3-5.3,9.6
		C141.7,142.6,158.9,142.6,176.3,142.6z M82.4,129.2c-12.1,3-15.6,4.9-16.7,9.7c17.1,1.3,34.1,2.5,51.3,3.8c0.2-1.7,0.3-2.9,0.5-4
		c0.7-3.4,0.2-4.5-3-5.7c-3.8-1.5-7.7-2.6-11.7-3.9c-1.9,4.8-5.1,7.8-10.3,7.8C87.4,136.8,84.2,133.9,82.4,129.2z M105.4,148.5
		c-2.8,0.2-5.9-0.6-7.6,0.6c-9.2,6.8-12.4,19.2-9.9,27.8c0.1,0,0.2,0.1,0.2,0c5.5-4.2,11-8.5,16.5-12.7c0.4-0.3,0.7-1,0.7-1.6
		C105.4,158.2,105.4,153.7,105.4,148.5z M144.1,177.4c1.7-10.7-0.9-19.4-8.1-26.7c-0.4-0.4-0.9-0.8-1.3-0.8c-2.7-0.1-5.4,0-8.3,0
		c0,3.2,0.2,6.5-0.1,9.7c-0.2,2.9,0.6,4.9,3.1,6.5c2.8,1.8,5.3,4,7.9,6.1C139.4,173.8,141.5,175.4,144.1,177.4z M37.8,160.3
		c0,4.9-0.1,9.4,0,14c0,2,1.2,3.1,3.2,3.2c2.9,0.1,5.7,0,8.6,0c2.1,0,3.2-1.1,3.2-3.1c0.1-3.6,0-7.3,0-10.9c0-1.9-1.1-3.1-3-3.1
		C46,160.2,42.1,160.3,37.8,160.3z M261.9,160.3c-4.3,0-8.2-0.1-12.1,0c-1.8,0-2.9,1.1-2.9,3c-0.1,3.8-0.1,7.6,0,11.3
		c0,1.8,1.2,2.8,3,2.8c2.9,0,5.9,0,8.8,0c1.9,0,3.1-1.1,3.2-3C262,169.8,261.9,165.2,261.9,160.3z M148.5,121.4c0,1.8-0.1,3.6,0,5.3
		c0.2,2,1.4,3.1,3.3,3.2c1.9,0,3.2-1,3.4-2.9c0.2-1.9,0-3.8,0-5.7C153,121.4,150.9,121.4,148.5,121.4z M89.3,121.4
		c0,2.1-0.2,4,0.1,5.9c0.2,1.7,1.5,2.7,3.3,2.6c1.8,0,3.1-1.1,3.3-2.9c0.2-1.9,0-3.8,0-5.6C93.6,121.4,91.5,121.4,89.3,121.4z
		 M207.9,121.4c0,2-0.2,3.9,0,5.8c0.2,1.8,1.5,2.7,3.2,2.7c1.7,0,3.1-0.9,3.3-2.7c0.2-2,0.1-4,0.1-5.9
		C212.2,121.4,210.2,121.4,207.9,121.4z M126.5,190.2c0,2.7,0,4.8,0,7.7c2.2-1.1,4-2,6-3C130.4,193.3,128.6,191.9,126.5,190.2z
		 M105.2,196.9c0-2.6,0-4.4,0-6.6c-2.1,1.6-3.8,3-6.2,4.9C101.4,195.9,103.2,196.4,105.2,196.9z M42.3,150.5c-3.2-0.5-4,0-4.3,2.6
		c1.4,0,2.8,0,4.3,0C42.3,152.2,42.3,151.4,42.3,150.5z M257.4,153.2c1.6,0,3,0,4.4,0c-0.5-2.7-1.3-3.2-4.4-2.6
		C257.4,151.3,257.4,152.2,257.4,153.2z"/>
	<path class="st1" d="M180.4,171.3c-0.3,0-0.6,0-0.9,0c-2.2,0-3.7-1.3-3.8-3.3c-0.1-2,1.3-3.5,3.6-3.7c11.4-0.8,22.7-1.5,34.1-2.3
		c4-0.3,8-0.6,12-0.8c2.8-0.2,4.4,0.9,4.6,3.1c0.2,2.3-1.2,3.6-4.1,3.8C210.7,169.2,195.5,170.2,180.4,171.3
		C180.4,171.2,180.4,171.3,180.4,171.3z"/>
	<path class="st1" d="M181.6,183.9c0,0-0.7,0-1.3,0c-2.2,0-3.7-1.3-3.8-3.2c-0.1-1.9,1.2-3.5,3.4-3.7c4.7-0.4,9.4-0.7,14.1-1
		c2.2-0.1,3.7,1.3,3.8,3.2c0.1,2-1.1,3.5-3.3,3.7C190.4,183.3,186.3,183.6,181.6,183.9z"/>
</g>
<g>
</g>
<g>
</g>
<g>
</g>
<g>
</g>
<g>
</g>
<g>
</g>
</svg>
