<?xml version="1.0" encoding="utf-8"?>
<!-- Generator: Adobe Illustrator 17.0.0, SVG Export Plug-In . SVG Version: 6.00 Build 0)  -->
<!DOCTYPE svg PUBLIC "-//W3C//DTD SVG 1.1//EN" "http://www.w3.org/Graphics/SVG/1.1/DTD/svg11.dtd">
<svg version="1.1" id="Layer_1" xmlns="http://www.w3.org/2000/svg" xmlns:xlink="http://www.w3.org/1999/xlink" x="0px" y="0px"
	 width="300px" height="300px" viewBox="0 0 300 300" style="enable-background:new 0 0 300 300;" xml:space="preserve">
<style type="text/css">
	.st0{fill:#DAC0D0;}
	.st1{fill:#696969;}
</style>
<path class="st0" d="M56.3,131v29.1v18.2l11.6,3.9l14.7,2.3l18.6,1.9l24.8,1.9h30.6h21.2l29.6-2.3l21.4-2.7l15.8-1.9l5-3.1v-7.5
	l1.9-29.3v-7.4l-3.1-4.7h-9.3l-13.2,1.6l-25.6,3.9c0,0-20.3,1.6-21.8,1.6s-23.2-1.2-27.8-1.2s-36.4-0.4-36.4-0.4s-20.2-0.8-23.3-1.2
	c-3.1-0.4-24-2.7-24-2.7h-9.3L56.3,131L56.3,131z"/>
<g>
	<path class="st1" d="M286.5,190c-1.6,4.1-3.9,7.6-8.5,8.7c-1.5,0.3-3,0.5-4.7,0.7c0,1.7,0,3.6,0,5.3c0,4.2-2.1,7.1-6,8.6
		c-1.4,0.5-1.7,1.1-1.6,2.5c0.3,3.4,0.6,6.9,0.9,10.3s-0.9,5.5-3.6,5.8c-2.4,0.2-4.1-1.5-4.4-4.8c-0.3-3.8-0.7-7.6-1-11.1
		c-10.8,1.3-21.4,2.5-32.1,3.6c-6,0.6-12,0.9-18.1,1.3c-3.1,0.2-4.9-1.4-5-3.8c-0.1-2.4,1.7-4,4.8-4.1c17.4-1.1,34.9-2.3,52.1-5.8
		c0.2,0,0.3,0,0.6-0.1c6-1.3,6-1.4,5.3-7.6c-0.6-0.1-1.1-0.2-1.7-0.3c-5.4-0.7-9.6-4.7-10-10.1c-0.3-4.9-0.2-10,0-14.9
		c0.2-5.4,4-9.4,9.4-10.3c0.8-0.1,1.6-0.2,2.4-0.5c0-3.9,0-7.8,0-12c-3.7,0.7-7.1,1.4-10.6,1.9c-5.7,0.9-11.6,1.6-17.4,2.4
		c-2.8,0.3-4.6-0.9-5-3.2c-0.5-2.5,0.9-4.2,3.9-4.7c4.9-0.7,9.9-1.3,15.3-1.9c-4.4-7.9-12.7-7-19-10.2c-2.2,5.7-5.8,9.2-11.8,9.1
		c-5.8,0-9.5-3.3-11.6-9.1c-4.8,1.6-9.6,3-14.3,5c-3.9,1.6-5.8,5.7-5.5,10.3c7.5-0.3,14.8-0.8,22.2-1.1c1.8-0.1,3.7-0.2,5.6-0.3
		c2.8,0,4.4,1.5,4.5,3.9c0,2.3-1.6,3.9-4.4,4.1c-6.4,0.5-13,0.8-19.4,1c-11.5,0.5-22.9,0.8-34.7,1.1c8.1,18.7,7,36.8-3.3,54.7
		c2.3,0,4.2,0,6.1,0c6.9-0.1,13.9-0.3,20.8-0.5c3.2-0.1,5,1.3,5.2,3.7c0.1,2.4-1.7,4.1-5,4.2c-1.3,0.1-2.4,0-3.9,0
		c-0.2,2.2-0.3,4.1-0.6,6.1c-0.2,2.5-1.9,4.1-4.1,4.1c-2.3,0-3.9-1.9-3.9-4.5c0-0.9,0.1-1.7,0.2-2.6c0.1-0.8,0.1-1.6,0.2-2.6
		c-20,0-39.9,0-59.9,0c-0.2,1.9-0.2,3.8-0.6,5.7c-0.3,2.8-2.2,4.2-4.4,4c-2.3-0.2-3.7-2.1-3.6-4.8c0.1-1.7,0.2-3.6,0.2-5.2
		c-19.8-1.7-39.3-3.3-59.4-5c-0.3,3.2-0.7,6.9-0.9,10.6c-0.1,2.2-1.1,3.8-3.3,4.2c-2.5,0.6-4.8-1.4-4.7-4.4c0.2-4,0.6-8.1,0.9-11.7
		c-3.6-1.8-7.2-3-10.1-5.3c-3.3-2.6-1.8-7.1-2.3-11.1c-6.7,0.1-11-3.1-13.1-9.3c0-9.7,0-19.5,0-29.4c2.2-6.1,6.4-9.2,12.8-8.7
		c2.1-6.5,5.4-9.3,10.4-8.5c1.7,0.2,3.4,0.7,5.2,1c0.9,0.2,2,0.3,3,0.5c0.2-0.5,0.5-0.9,0.7-1.4c2.3-6,6.5-9.9,12.5-11.8
		c4-1.3,8.1-2.5,12.2-3.9c0.8-0.2,1.8-1.1,1.8-1.7c0-1-0.5-2.5-1.1-3.1c-8.3-5.6-12.2-13.4-11.7-23.4c0.1-3.4-0.2-7,0.3-10.3
		c2-12.6,12.7-21.7,25-21.3c12.7,0.2,23.1,9.6,24.4,22.6c0.5,4.6,0.3,9.3,0,13.9c-0.7,7.8-4.6,13.9-11.1,18.2
		c-1.5,1-2.3,2.2-1.7,3.7c0.3,0.8,1.5,1.5,2.5,1.8c3.4,1.3,7,2.1,10.3,3.4c3.2,1.3,6.2,2.9,9.6,4.5c5.2-4.6,12.6-5.3,19.3-7.9
		c0.9-0.3,2.1-1.1,2.3-1.9c0.6-1.4-0.2-2.5-1.6-3.4c-7.5-5-11.5-12-11.4-21.1c0-4.8-0.1-9.9,0.9-14.6c2.5-11.9,14.2-20.2,26-19
		c13.1,1.4,22.6,11.4,23.1,24.1c0.1,3.2,0,6.4,0,9.6c0,8.9-3.9,15.9-11.2,20.9c-1.5,1-2.2,2.2-1.6,3.7c0.3,0.8,1.5,1.5,2.4,1.8
		c3.6,1.3,7.1,2.2,10.6,3.6c3.1,1.3,6.1,2.9,9.3,4.4c5.2-4.6,12.5-5.3,19-7.9c1-0.3,2.2-1.1,2.5-2.1c0.6-1.5-0.5-2.5-1.7-3.3
		c-7.3-5-11.4-12.2-11.2-21.1c0-4.1-0.2-8.4,0.5-12.5c1.9-12.6,13.2-21.7,25.6-21c13,0.7,23.2,10.6,24,23.5c0.2,4,0.3,8.1,0,12.3
		c-0.6,8.1-4.6,14.4-11.4,18.9c-1.4,0.9-2.2,1.9-1.6,3.4c0.3,0.8,1.4,1.6,2.4,1.9c3.4,1.3,6.9,2.3,10.3,3.3c6.8,1.9,11.6,6,14,12.6
		c10.3-0.6,12.7,0.7,14.3,7.9c6.4-0.3,10.9,2.6,13.1,8.8C286.5,170.5,286.5,180.3,286.5,190z M143.9,159.6c0.7,1.1,1.1,1.7,1.5,2.3
		c6.9,11.2,8.5,23.2,4.2,35.7c-1.6,4.7-4.1,5.4-8,2.4c-7.8-6.1-15.6-12.3-23.5-18.3c-2.3-1.7-3.3-3.7-3.2-6.5c0.1-5.3,0-10.6,0-16.2
		c-2.8,0-5.2,0-7.9,0c0,0.8-0.1,1.7-0.1,2.5c0,4.9-0.1,9.7,0,14.7c0,2.2-0.8,3.7-2.5,4.9c-8.1,6.2-16.2,12.5-24.2,18.8
		c-3.9,3-6.5,2.3-8-2.4c-4.5-13.4-2.6-26,5.5-37.7c0.6-0.8,1.1-1.6,1.9-2.8c-2.8-0.2-5-0.7-7.3-0.6c-1,0-2.5,0.7-2.9,1.5
		c-2.1,4.2-4.1,8.6-5.8,13.1c-1.1,3-2.8,4.5-5,3.8c-2.5-0.7-3.6-2.9-2.5-6c1.5-4.5,3.3-8.9,4.9-13.3c-8.6-1.4-17.3-2.8-26.1-4.1
		c0,4.1,0,8,0,11.8c7.6,1.3,11.4,4.7,11.7,10.8c0.2,4.9,0.2,10,0,14.9c-0.3,5.4-4.5,9.5-10,10.2c-0.6,0.1-1.1,0.2-1.7,0.2
		c-0.8,6.1-0.7,6.3,4.9,7.6c0.7,0.1,1.4,0.3,2.1,0.5c5.8,0.9,11.8,1.9,18.2,3c-0.8-1.8-1.4-2.9-1.7-4c-1.4-5.3-3-10.6-4.1-15.9
		c-0.5-2.4,1.3-4.2,3.4-4.6c2.1-0.2,3.8,1.1,4.4,3.4c0.1,0.7,0.2,1.4,0.3,2.1c1,6.5,3.2,12.7,6.8,18.3c0.3,0.6,1,1.4,1.6,1.5
		c3.4,0.3,7,0.6,10.1,0.8c0.7-1.6,1-3.1,1.8-3.8c5.8-4.7,11.8-9.4,17.9-13.9c2.6-1.9,6-0.1,6.1,3.2c0.1,3.6,0,7.1,0,10.7
		c0,1.7,0,3.4,0,5.3c2.9,0.1,5.3,0.2,8,0.3c0-5.2,0-10,0-14.7c0-2.2,0.1-4.2,2.4-5.2c2.1-0.9,3.7,0.1,5.4,1.4
		c4.8,3.8,9.6,7.6,14.4,11.4c3.6,2.8,3.8,3.4,2.1,7.9c3.1,0,6.1,0.1,9.1-0.1c0.7,0,1.6-0.7,2.1-1.3c11.1-14,12.7-36.7,3.8-52.1
		c-0.3-0.7-1.3-1.4-1.9-1.4C149.7,159.5,147,159.6,143.9,159.6z M101.4,97.5c0-1.5,0-3,0-4.5c-0.3-9.7-7.9-17.1-17.3-17
		s-16.6,7.7-16.7,17.4c0,2.8,0,5.5,0,8.3c0.1,9.4,7.6,17.1,16.7,17.3c8.9,0.2,17-7.5,17.3-16.7C101.4,100.7,101.4,99.1,101.4,97.5z
		 M169.5,97.7c-0.1,0-0.2,0-0.3,0c0-1.7,0-3.6,0-5.3c-0.3-8.9-7.5-16.1-16.4-16.4c-8.7-0.3-16.5,6.3-17.3,15.1
		c-0.3,4.1-0.3,8.4,0,12.5c0.7,8.1,7.5,14.6,15.8,15.4c7.5,0.7,15.4-4.9,17.3-12.5C169.3,103.7,169.3,100.7,169.5,97.7z M203.1,97.5
		h0.1c0,1.6,0,3.2,0,4.8c0.2,8.9,7.8,16.5,16.7,16.7c8.8,0.2,16.9-7.2,17.3-16.2c0.1-3.4,0.1-6.9,0-10.3
		c-0.3-8.8-7.1-15.6-15.9-16.4c-8.3-0.7-16.1,5.3-17.7,13.8C203.2,92.3,203.3,94.9,203.1,97.5z M180.3,151.3
		c0.2-1.9,0.1-3.6,0.7-4.9c1.4-3.2-0.3-4.8-2.8-5.8c-4.7-1.8-9.4-3.3-14.2-4.9c-2.2,5.6-5.8,8.9-11.7,9.1c-6,0-9.6-3.4-11.8-8.9
		c-4.6,1.5-9.2,2.9-13.6,4.6c-4.4,1.7-6.7,6.1-6.1,11C140.6,151.3,160.3,151.3,180.3,151.3z M72.6,135.9
		c-13.9,3.4-17.9,5.6-19.2,11.1c19.6,1.5,39.1,2.9,58.8,4.4c0.2-1.9,0.3-3.3,0.6-4.6c0.8-3.9,0.2-5.2-3.4-6.5
		c-4.4-1.7-8.8-3-13.4-4.5c-2.2,5.5-5.8,8.9-11.8,8.9C78.3,144.6,74.7,141.3,72.6,135.9z M99,158c-3.2,0.2-6.8-0.7-8.7,0.7
		c-10.6,7.8-14.2,22-11.4,31.9c0.1,0,0.2,0.1,0.2,0c6.3-4.8,12.6-9.7,18.9-14.6c0.5-0.3,0.8-1.1,0.8-1.8C99,169.1,99,164,99,158z
		 M143.3,191.2c1.9-12.3-1-22.2-9.3-30.6c-0.5-0.5-1-0.9-1.5-0.9c-3.1-0.1-6.2,0-9.5,0c0,3.7,0.2,7.5-0.1,11.1
		c-0.2,3.3,0.7,5.6,3.6,7.5c3.2,2.1,6.1,4.6,9.1,7C138,187,140.4,188.9,143.3,191.2z M21.4,171.6c0,5.6-0.1,10.8,0,16.1
		c0,2.3,1.4,3.6,3.7,3.7c3.3,0.1,6.5,0,9.9,0c2.4,0,3.7-1.3,3.7-3.6c0.1-4.1,0-8.4,0-12.5c0-2.2-1.3-3.6-3.4-3.6
		C30.8,171.4,26.4,171.6,21.4,171.6z M278.4,171.6c-4.9,0-9.4-0.1-13.9,0c-2.1,0-3.3,1.3-3.3,3.4c-0.1,4.4-0.1,8.7,0,13
		c0,2.1,1.4,3.2,3.4,3.2c3.3,0,6.8,0,10.1,0c2.2,0,3.6-1.3,3.7-3.4C278.6,182.4,278.4,177.2,278.4,171.6z M148.4,126.9
		c0,2.1-0.1,4.1,0,6.1c0.2,2.3,1.6,3.6,3.8,3.7c2.2,0,3.7-1.1,3.9-3.3s0-4.4,0-6.5C153.6,126.9,151.1,126.9,148.4,126.9z
		 M80.5,126.9c0,2.4-0.2,4.6,0.1,6.8c0.2,1.9,1.7,3.1,3.8,3c2.1,0,3.6-1.3,3.8-3.3c0.2-2.2,0-4.4,0-6.4
		C85.4,126.9,83,126.9,80.5,126.9z M216.5,126.9c0,2.3-0.2,4.5,0,6.7c0.2,2.1,1.7,3.1,3.7,3.1s3.6-1,3.8-3.1
		c0.2-2.3,0.1-4.6,0.1-6.8C221.4,126.9,219.2,126.9,216.5,126.9z M123.2,205.8c0,3.1,0,5.5,0,8.8c2.5-1.3,4.6-2.3,6.9-3.4
		C127.6,209.4,125.6,207.8,123.2,205.8z M98.7,213.5c0-3,0-5,0-7.6c-2.4,1.8-4.4,3.4-7.1,5.6C94.4,212.4,96.4,213,98.7,213.5z
		 M26.6,160.3c-3.7-0.6-4.6,0-4.9,3c1.6,0,3.2,0,4.9,0C26.6,162.3,26.6,161.3,26.6,160.3z M273.3,163.4c1.8,0,3.4,0,5,0
		c-0.6-3.1-1.5-3.7-5-3C273.3,161.2,273.3,162.3,273.3,163.4z"/>
	<path class="st1" d="M185,184.2c-0.3,0-0.7,0-1,0c-2.5,0-4.2-1.5-4.4-3.8s1.5-4,4.1-4.2c13.1-0.9,26-1.7,39.1-2.6
		c4.6-0.3,9.2-0.7,13.8-0.9c3.2-0.2,5,1,5.3,3.6c0.2,2.6-1.4,4.1-4.7,4.4C219.7,181.8,202.3,182.9,185,184.2
		C185,184.1,185,184.2,185,184.2z"/>
	<path class="st1" d="M186.4,198.6c0,0-0.8,0-1.5,0c-2.5,0-4.2-1.5-4.4-3.7s1.4-4,3.9-4.2c5.4-0.5,10.8-0.8,16.2-1.1
		c2.5-0.1,4.2,1.5,4.4,3.7c0.1,2.3-1.3,4-3.8,4.2C196.4,197.9,191.7,198.3,186.4,198.6z"/>
</g>
</svg>
