<?xml version="1.0" encoding="utf-8"?>
<!-- Generator: Adobe Illustrator 17.0.0, SVG Export Plug-In . SVG Version: 6.00 Build 0)  -->
<!DOCTYPE svg PUBLIC "-//W3C//DTD SVG 1.1//EN" "http://www.w3.org/Graphics/SVG/1.1/DTD/svg11.dtd">
<svg version="1.1" id="Layer_1" xmlns="http://www.w3.org/2000/svg" xmlns:xlink="http://www.w3.org/1999/xlink" x="0px" y="0px"
	 width="300px" height="300px" viewBox="0 0 300 300" style="enable-background:new 0 0 300 300;" xml:space="preserve">
<style type="text/css">
	.st0{fill:#696969;}
	.st1{fill:#DAC0D0;}
</style>
<g>
	<g>
		<path class="st0" d="M137.1,206.8c-8.3-6.9-13.3-14.6-14.9-24.4c-2-12.3,3.2-23.5,13.4-29.5c9.9-5.8,22.5-5.2,31.6,1.7
			c9.5,7.1,13.5,18.8,10.3,30.7c-1.9,7.4-4.1,10.8-13.8,21.5c2.1,0.8,4.1,1.5,6,2.3c13.4,5.6,24.2,14.2,30,27.8
			c4.1,9.6,2.3,13.6-7.7,16.5c-18.4,5.4-37.3,5.7-56.3,4.4c-8.6-0.6-17.1-2.3-25.7-3.8c-2.3-0.4-4.5-1.5-6.6-2.4
			c-4.5-1.9-5.8-5.3-4.7-10c2-8.4,6.9-15.1,13.1-21C118.9,214.3,127.2,209.9,137.1,206.8z"/>
		<path class="st1" d="M104.6,139.5c6.4,3.8,12.7,7.5,19.5,11.5c-7.7,8.2-11,17-11.4,27.5c-4.6,0.3-9,1-13.3,0.7
			c-12.2-0.8-24.5-1.3-36.6-3.3c-9.2-1.5-10.7-5.8-6.4-14.3c4.6-9.3,12.2-15.4,21.7-19.4c1.6-0.7,3.2-1.3,5.2-2.1
			c-7.5-6.8-12.2-14.7-11.2-24.9c0.5-5.6,3.1-10.2,7.4-13.8c8.8-7.5,22-6.8,30,1.6C116.9,110.7,119.2,125.6,104.6,139.5z"/>
		<path class="st1" d="M195.7,139.4c-12.5-13.4-14.2-27-4.5-36.9c8.2-8.3,21.7-8.7,30.3-0.7c10.3,9.5,8.9,22.8-3.5,37.4
			c6.1,4.1,13,7.5,18.4,12.6c4,3.8,6.5,9.5,9,14.6c1.9,3.8,0,7-3.9,8.1c-5.7,1.7-11.5,3.5-17.4,3.9c-10.4,0.7-20.8,0.5-31.2,0.5
			c-1.7,0-3.4-0.4-5.4-0.7c-0.4-10.1-3.6-19-11.4-27.2C183,146.9,189.2,143.2,195.7,139.4z"/>
		<path class="st0" d="M12.9,210.2c-0.3-0.8-0.3-1-0.4-1.1c-1.6-8.5,0.6-14.7,9.3-18.4c4.4-1.8,8.3-5.1,13-7
			c-4.5,4.1-8.9,8.2-14.5,13.3c3,0,4.6,0,6.3,0c28.4,0,56.7,0.1,85.1-0.1c5.2,0,8.4,1.3,9.7,6.6c-5.4,4-10.9,7-18.5,6.9
			c-28.2-0.5-56.4-0.2-84.6-0.2C16.4,210.2,14.7,210.2,12.9,210.2z"/>
		<path class="st0" d="M287.9,210.2c-10.4,0-20.2,0-29.9,0c-19.9,0-39.8,0-59.6,0c-10.4,0-10.4,0-19.1-6.8c1.2-4.9,4.1-6.6,9.4-6.6
			c28.2,0.3,56.5,0.1,84.7,0.1c1.7,0,3.4,0,6.8,0c-5.5-5-10-9.2-14.5-13.3c0.2-0.3,0.3-0.5,0.5-0.8c6.9,4.5,13.9,8.8,20.7,13.5
			c0.9,0.6,1,2.8,1.1,4.3C288,203.6,287.9,206.6,287.9,210.2z"/>
	</g>
	<g>
		<path class="st0" d="M152.2,58.3c1.6,0.6,3.2,1.3,4.8,1.8c16.9,5.7,21.7,26.5,9,39.1c-1.3,1.3-2.7,3.2-2.8,5
			c-0.3,5-1.1,9.1-4.7,13.6c-3,3.7-5.1,4.9-9.2,4.9c-3.6-0.1-5.3-1.5-8-4.4c-4.4-4.7-4.3-9.3-4.6-14.5c-0.1-1.2-1.1-2.6-2-3.5
			c-14.5-14.5-9.4-34.9,10.1-40.7c0.9-0.3,1.7-0.8,2.5-1.1C149,58.3,150.6,58.3,152.2,58.3z M153.3,103.7c3.1-4,5.3-7.3,8-10.2
			c6-6.5,6-16.4-0.2-22.5c-6.3-6.2-16.3-6.1-22.5,0.2c-6.2,6.3-6,16,0.1,22.5c2.7,2.8,4.8,6.2,7.8,10
			C148.3,103.7,151.6,103.7,153.3,103.7z"/>
		<path class="st0" d="M184.1,52.7c-2,3.1-3.7,6.3-6,9.1c-0.6,0.7-3.7,0.5-4.1-0.1c-0.7-1.4-1.2-4.1-0.4-5c2.2-2.5,5.1-4.4,7.7-6.5
			C182.2,51,183.2,51.9,184.1,52.7z"/>
		<path class="st0" d="M107.4,75.2c0.5-3.2,0.6-6.2,1.1-6.3c3.7-0.5,7.4-0.4,11.1-0.2c0.2,0,0.5,4.6,0.1,4.6
			C116.1,74.2,112.4,74.5,107.4,75.2z"/>
		<path class="st0" d="M133.9,53.8c0.8-5,1.2-8.7,2.1-12.2c0.1-0.3,4.6,0,4.6,0.2c0.2,3.7,0.2,7.5-0.3,11.1
			C140.2,53.3,137.2,53.3,133.9,53.8z"/>
		<path class="st0" d="M166.8,41.7c-0.4,4.9-0.8,8.4-1.1,12c0,0.1-0.2,0.3-0.3,0.3c-1.7-0.1-4.8-0.1-4.8-0.3
			c-0.3-3.7-0.3-7.4,0.1-11C160.7,42.2,163.7,42.2,166.8,41.7z"/>
		<path class="st0" d="M125,52.5c0.8,0.9,2.2,1.8,2.3,2.8c0.2,1.6,0.1,4.2-0.9,4.9c-2.9,2.1-4.8-0.6-6.6-2.5
			c-1.9-1.8-4.6-3.7-2.5-6.7c0.7-1,3.3-1.1,4.9-1C123.1,50.3,124,51.7,125,52.5z"/>
		<path class="st0" d="M180.1,68.4c5.2,0.4,8.9,0.5,12.5,1.2c0.5,0.1,0.3,3.2,0.5,4.9c-3.7,0.1-7.4,0.5-11.1,0.2
			C181.4,74.6,181,71.7,180.1,68.4z"/>
		<path class="st1" d="M138.1,82.8c0-6.9,5.6-12.5,11.1-12c1.5,0.1,3.7,1.7,4,2.9c0.2,1.2-1.5,3.7-2.7,4c-3,0.8-4.4,2.2-5.3,5.2
			c-0.3,1.2-2.8,2.7-4.1,2.5C139.8,85.4,138.7,83.4,138.1,82.8z"/>
	</g>
</g>
</svg>
