<?xml version="1.0" encoding="utf-8"?>
<!-- Generator: Adobe Illustrator 17.0.0, SVG Export Plug-In . SVG Version: 6.00 Build 0)  -->
<!DOCTYPE svg PUBLIC "-//W3C//DTD SVG 1.1//EN" "http://www.w3.org/Graphics/SVG/1.1/DTD/svg11.dtd">
<svg version="1.1" id="Layer_1" xmlns="http://www.w3.org/2000/svg" xmlns:xlink="http://www.w3.org/1999/xlink" x="0px" y="0px"
	 width="300px" height="300px" viewBox="0 0 300 300" style="enable-background:new 0 0 300 300;" xml:space="preserve">
<style type="text/css">
	.st0{fill:#DAC0D0;}
	.st1{fill:#696969;}
</style>
<g>
	<path class="st0" d="M187.9,111.1c0,8.3,0.8,16.7-0.2,24.8c-1.6,13.1-13.7,22.8-27,22.9c-6.4,0-12.9,0.3-19.3,0
		c-5.1-0.2-9,1.5-12.4,5.2c-5.5,5.9-11.3,11.6-16.9,17.4c-0.8,0.8-1.5,1.7-2.4,2.4c-1,0.7-2.3,1.2-3.4,1.8c-0.4-1.3-1.2-2.6-1.2-3.9
		c0-5,0.2-9.9,0.2-14.9c0.1-6.9-0.1-7.2-6.7-9.2c-10.4-3.2-17.1-10-19.4-20.6c-1.1-4.9-0.9-10.1-0.9-15.2c0-11.6-0.2-23.2,0.5-34.8
		c0.9-13.5,13.4-24.7,27.1-24.8c18.5-0.1,37-0.8,55.4,0.2c15.2,0.8,26.1,10.3,26.9,27.5c0.3,7,0.1,14.1,0.1,21.1
		C188.3,111.1,188.1,111.1,187.9,111.1z M126.6,100.9c-1.7-1.9-2.9-3.6-4.4-5c-5-4.8-12.1-4.9-16.8-0.3c-4.7,4.6-4.8,11.7-0.1,16.8
		c4.3,4.6,8.8,9.1,13.4,13.4c5.3,5,11.7,4.8,16.9-0.3c8.8-8.7,17.5-17.4,26.2-26.2c5-5,5.1-12.2,0.4-17c-4.4-4.5-12-4.6-16.8,0.1
		c-5.3,5.1-10.5,10.3-15.7,15.5C128.8,98.8,128,99.6,126.6,100.9z M169,141H95V73h74V141z"/>
	<path class="st1" d="M31.4,226c0.4-0.9,0.8-1.9,1.1-2.8c3.3-11.7,10.7-19.4,22.5-22.8c0.6-0.2,1.1-0.5,1.8-0.7
		c-6.3-9.8-7.2-19.7-0.8-29.5c5.9-9,14.4-11.7,29.3-9.6c0-4.4,0.1-8.7-0.1-13c0-0.8-1.5-1.7-2.6-2.1c-12.9-5.7-21.1-15.3-23.3-29.3
		c-0.9-5.6-0.7-11.4-0.7-17.1c0-10.3,0-20.5,0.3-30.8c0.6-17.6,12.9-32.1,30.5-35.7c2.5-0.5,5.1-0.8,7.7-0.8
		c18-0.1,36.1-0.4,54.1,0.1c16.5,0.5,30.6,10.8,35.1,25.6c1.4,4.5,2.1,9.3,2.2,14c0.3,13.3,0.2,26.5,0.1,39.8
		c-0.1,19.9-17.2,36.9-37,37.1c-6.7,0.1-13.5,0-20.2,0.2c-1.6,0.1-3.5,0.8-4.6,1.9c-6.6,6.1-13,12.5-19.6,18.7
		c-2.2,2.1-4.9,3.8-7.7,5.9c3,8.4,2.4,16.9-3.8,24.7c1.6,0.5,2.9,0.9,4.1,1.3c12.7,4.2,21.1,15.8,21.2,29.2c0,8.1-0.2,16.2,0.1,24.3
		c0.2,6-1.5,10.8-6.9,13.8c-25.1,0-50.2,0-75.3,0c-2.5-2.5-5-5-7.5-7.5C31.4,249.3,31.4,237.6,31.4,226z M177.6,90.3
		c0.2,0,0.3,0,0.5,0c0-7.1,0.3-14.1-0.1-21.1c-0.8-17.2-11.7-26.7-26.9-27.5c-18.4-1-36.9-0.3-55.4-0.2
		c-13.7,0.1-26.2,11.3-27.1,24.8c-0.8,11.6-0.5,23.2-0.5,34.8c0,5.1-0.2,10.3,0.9,15.2c2.3,10.5,9,17.4,19.4,20.6
		c6.6,2,6.7,2.3,6.7,9.2c0,5-0.3,9.9-0.2,14.9c0,1.3,0.8,2.6,1.2,3.9c1.1-0.6,2.4-1.1,3.4-1.8c0.9-0.7,1.6-1.6,2.4-2.4
		c5.6-5.8,11.4-11.4,16.9-17.4c3.4-3.7,7.3-5.4,12.4-5.2c6.4,0.3,12.9,0,19.3,0c13.3-0.1,25.4-9.8,27-22.9
		C178.4,106.9,177.6,98.6,177.6,90.3z M76.5,259.3c10.4,0,20.7,0,31.1,0c2.2,0,3.8-0.3,3.8-3.2c-0.1-8.7,0.1-17.4-0.1-26.1
		c-0.2-10.2-6.9-18.4-16.9-20.3c-6-1.1-12.3-1.4-18.4-1.5c-4.5-0.1-9,0.7-13.6,0.8c-11.8,0.4-21.2,9.9-21.2,21.7
		c0,8.1,0,16.2,0,24.3c0,4,0.2,4.3,4.2,4.3C55.8,259.3,66.1,259.3,76.5,259.3z M91.4,184.6c-0.1-9-6.7-15.6-15.6-15.5
		c-8,0.1-14.7,7.1-14.6,15.2c0.1,7.9,7.9,15.9,15.3,15.8C83.6,199.9,91.4,191.8,91.4,184.6z"/>
	<path class="st1" d="M185.8,268.4c-5.6-3.3-7.1-8.4-6.9-14.5c0.3-7.6,0-15.1,0.1-22.7c0.2-15,8.9-26.3,23.2-30.6
		c0.7-0.2,1.3-0.5,2.2-0.9c-5.7-7.7-6.8-16-3.7-24.1c-3.5-3.1-6.7-5.7-9.8-8.6c-5.1-4.8-10-9.6-15-14.5c-3.9-3.9-3.9-6.2,0.1-10.2
		c2.1-2.2,4.3-4.2,6.2-6.5c5.6-6.7,9.1-14.5,9.1-23.3c0.1-16.6-0.1-33.2-0.4-49.8c0-2.5-1-5.1-1.9-7.5c-2.7-7.1-1.6-9.2,6-9.9
		c10.6-1,20.8,0.4,29.8,6.4c11,7.3,16.3,18.1,16.8,31c0.4,10.2,0.4,20.6-0.4,30.8c-1.1,15-9.1,25.5-22.9,31.4
		c-2.7,1.2-3.5,2.5-3.3,5.2c0.2,3.4,0.1,6.8,0.1,10.6c12.4-3.1,22.7-0.5,29.8,10.4c5.6,8.6,5.1,16.9-1.2,28.7c1.9,0.7,3.7,1.2,5.5,2
		c11.7,4.7,19.4,15.9,19.5,28.5c0.1,8.1-0.2,16.2,0.1,24.3c0.2,6-1.5,10.7-6.9,13.8C236.4,268.4,211.1,268.4,185.8,268.4z
		 M223.8,259.3c10.5,0,21,0,31.4,0c2,0,3.7-0.1,3.7-2.9c-0.1-9,0.1-18.1-0.2-27.1c-0.3-8.9-6.2-17-14.9-19c-6.6-1.5-13.6-1.7-20.5-2
		c-4.3-0.2-8.6,0.6-12.9,0.7c-11.9,0.2-21.2,9-21.6,20.9c-0.3,8.4-0.2,16.8-0.2,25.2c0,3.9,0.3,4.1,4.3,4.1
		C203.3,259.3,213.5,259.3,223.8,259.3z M199.7,55c0.6,4.4,1.6,8.8,1.7,13.2c0.3,14.2,0.4,28.4,0.4,42.6c0,12.9-4.6,24.1-13.3,33.6
		c-0.9,1-1.7,2-2.8,3.3c5.3,5.4,10.3,10.7,15.5,15.9c0.7,0.7,1.9,0.9,2.9,1.4c0.4-1,1.1-2,1.1-3c0.1-5.3,0.1-10.6,0.1-15.9
		c0-6.5,0.2-6.7,6.3-8.8c11.4-3.9,18.9-11.6,19.8-23.8c0.8-11.5,1.3-23.3-0.2-34.7C228.6,60.4,212.7,53.7,199.7,55z M224,169.1
		c-8.6-0.1-15.3,6.6-15.3,15.4c0,8.7,7.1,15.1,15.1,15.3c7.2,0.2,14.8-6,15.1-14.9C239.2,176.2,232.4,169.2,224,169.1z"/>
	<path class="st1" d="M116.3,80.1c1.4-1.3,2.2-2.1,3-2.9c5.2-5.2,10.4-10.4,15.7-15.5c4.9-4.6,12.4-4.6,16.8-0.1
		c4.7,4.8,4.6,12-0.4,17c-8.7,8.8-17.4,17.5-26.2,26.2c-5.2,5.1-11.6,5.3-16.9,0.3c-4.6-4.3-9.1-8.8-13.4-13.4
		c-4.7-5-4.6-12.2,0.1-16.8c4.7-4.6,11.8-4.5,16.8,0.3C113.4,76.5,114.6,78.2,116.3,80.1z M117,99c7.2-7.4,13.9-14.4,20.7-21.4
		c1.9-2,4-3.9,5.8-6c0.5-0.6,0.4-1.7,0.6-2.6c-0.8,0.2-1.6,0.4-2.4,0.7c-0.4,0.1-0.6,0.6-0.9,0.8c-6.5,6.5-13,13-19.5,19.6
		c-3.2,3.3-6.1,3.3-9.3,0c-2.4-2.5-4.7-4.9-7.2-7.3c-0.5-0.4-1.6-0.3-2.4-0.4c0.1,0.7-0.1,1.7,0.3,2.1C107.2,89.2,111.8,93.7,117,99
		z"/>
</g>
<g>
</g>
<g>
</g>
<g>
</g>
<g>
</g>
<g>
</g>
<g>
</g>
</svg>
