<?xml version="1.0" encoding="utf-8"?>
<!-- Generator: Adobe Illustrator 17.0.0, SVG Export Plug-In . SVG Version: 6.00 Build 0)  -->
<!DOCTYPE svg PUBLIC "-//W3C//DTD SVG 1.1//EN" "http://www.w3.org/Graphics/SVG/1.1/DTD/svg11.dtd">
<svg version="1.1" id="Layer_1" xmlns="http://www.w3.org/2000/svg" xmlns:xlink="http://www.w3.org/1999/xlink" x="0px" y="0px"
	 width="300px" height="300px" viewBox="0 0 300 300" enable-background="new 0 0 300 300" xml:space="preserve">
<g>
	<path fill="#DAC0D0" d="M184.919,114.048c0,7.669,0.739,15.43-0.185,22.915c-1.478,12.104-12.659,21.067-24.947,21.159
		c-5.913,0-11.919,0.277-17.833,0c-4.712-0.185-8.316,1.386-11.457,4.805c-5.082,5.451-10.441,10.718-15.615,16.077
		c-0.739,0.739-1.386,1.571-2.218,2.218c-0.924,0.647-2.125,1.109-3.142,1.663c-0.37-1.201-1.109-2.402-1.109-3.604
		c0-4.62,0.185-9.147,0.185-13.767c0.092-6.375-0.092-6.653-6.191-8.501c-9.609-2.957-15.8-9.24-17.925-19.034
		c-1.016-4.527-0.832-9.332-0.832-14.045c0-10.718-0.185-21.436,0.462-32.155c0.832-12.474,12.381-22.822,25.04-22.915
		c17.094-0.092,34.187-0.739,51.189,0.185c14.044,0.739,24.116,9.517,24.855,25.409c0.277,6.468,0.092,13.028,0.092,19.496
		C185.289,114.048,185.104,114.048,184.919,114.048z M128.279,104.624c-1.571-1.756-2.68-3.326-4.066-4.62
		c-4.62-4.435-11.18-4.528-15.523-0.277c-4.343,4.25-4.435,10.811-0.092,15.523c3.973,4.25,8.131,8.408,12.381,12.381
		c4.897,4.62,10.811,4.435,15.615-0.277c8.131-8.039,16.17-16.077,24.208-24.208c4.62-4.62,4.712-11.273,0.37-15.708
		c-4.066-4.158-11.088-4.25-15.523,0.092c-4.897,4.712-9.702,9.517-14.506,14.322C130.312,102.683,129.573,103.423,128.279,104.624z
		 M167.456,141.675H99.081V78.845h68.375V141.675z"/>
	<path fill="#696969" d="M40.316,220.214c0.37-0.832,0.739-1.756,1.016-2.587c3.049-10.811,9.887-17.925,20.79-21.067
		c0.554-0.185,1.016-0.462,1.663-0.647c-5.821-9.055-6.653-18.202-0.739-27.257c5.451-8.316,13.305-10.811,27.073-8.87
		c0-4.066,0.092-8.039-0.092-12.012c0-0.739-1.386-1.571-2.402-1.94c-11.919-5.267-19.496-14.137-21.529-27.073
		c-0.832-5.174-0.647-10.533-0.647-15.8c0-9.517,0-18.942,0.277-28.459c0.554-16.262,11.919-29.66,28.181-32.986
		c2.31-0.462,4.712-0.739,7.115-0.739c16.632-0.092,33.356-0.37,49.987,0.092c15.246,0.462,28.274,9.979,32.432,23.654
		c1.294,4.158,1.94,8.593,2.033,12.936c0.277,12.289,0.185,24.485,0.092,36.774c-0.092,18.387-15.892,34.095-34.187,34.28
		c-6.191,0.092-12.474,0-18.664,0.185c-1.478,0.092-3.234,0.739-4.25,1.756c-6.098,5.636-12.012,11.55-18.11,17.278
		c-2.033,1.94-4.528,3.511-7.115,5.451c2.772,7.761,2.218,15.615-3.511,22.822c1.478,0.462,2.68,0.832,3.788,1.201
		c11.735,3.881,19.496,14.599,19.588,26.98c0,7.484-0.185,14.968,0.092,22.453c0.185,5.544-1.386,9.979-6.375,12.751
		c-23.192,0-46.384,0-69.576,0c-2.31-2.31-4.62-4.62-6.93-6.93C40.316,241.742,40.316,230.932,40.316,220.214z M175.402,94.829
		c0.185,0,0.277,0,0.462,0c0-6.56,0.277-13.028-0.092-19.496c-0.739-15.892-10.811-24.67-24.855-25.409
		c-17.001-0.924-34.095-0.277-51.189-0.185C87.07,49.832,75.52,60.18,74.688,72.654c-0.739,10.718-0.462,21.436-0.462,32.155
		c0,4.712-0.185,9.517,0.832,14.044c2.125,9.702,8.316,16.077,17.925,19.034c6.098,1.848,6.191,2.125,6.191,8.501
		c0,4.62-0.277,9.147-0.185,13.767c0,1.201,0.739,2.402,1.109,3.604c1.016-0.554,2.218-1.016,3.142-1.663
		c0.832-0.647,1.478-1.478,2.218-2.218c5.174-5.359,10.533-10.533,15.615-16.077c3.142-3.419,6.745-4.989,11.457-4.805
		c5.913,0.277,11.919,0,17.833,0c12.289-0.092,23.469-9.055,24.947-21.159C176.141,110.168,175.402,102.499,175.402,94.829z
		 M81.988,250.982c9.609,0,19.126,0,28.736,0c2.033,0,3.511-0.277,3.511-2.957c-0.092-8.039,0.092-16.077-0.092-24.116
		c-0.185-9.425-6.375-17.001-15.615-18.757c-5.544-1.016-11.365-1.294-17.001-1.386c-4.158-0.092-8.316,0.647-12.566,0.739
		c-10.903,0.37-19.588,9.147-19.588,20.05c0,7.484,0,14.968,0,22.453c0,3.696,0.185,3.973,3.881,3.973
		C62.861,250.982,72.378,250.982,81.988,250.982z M95.755,181.961c-0.092-8.316-6.191-14.414-14.414-14.322
		c-7.392,0.092-13.583,6.56-13.49,14.045c0.092,7.299,7.299,14.691,14.137,14.599C88.548,196.098,95.755,188.614,95.755,181.961z"/>
	<path fill="#696969" d="M182.979,259.39c-5.174-3.049-6.56-7.761-6.375-13.398c0.277-7.022,0-13.952,0.092-20.974
		c0.185-13.86,8.223-24.301,21.436-28.274c0.647-0.185,1.201-0.462,2.033-0.832c-5.267-7.115-6.283-14.784-3.419-22.268
		c-3.234-2.864-6.191-5.267-9.055-7.946c-4.712-4.435-9.24-8.87-13.86-13.398c-3.604-3.604-3.604-5.729,0.092-9.425
		c1.94-2.033,3.973-3.881,5.729-6.006c5.174-6.191,8.408-13.398,8.408-21.529c0.092-15.338-0.092-30.676-0.37-46.014
		c0-2.31-0.924-4.712-1.756-6.93c-2.495-6.56-1.478-8.501,5.544-9.147c9.794-0.924,19.219,0.37,27.535,5.913
		c10.164,6.745,15.061,16.724,15.523,28.643c0.37,9.425,0.37,19.034-0.37,28.459c-1.016,13.86-8.408,23.562-21.159,29.013
		c-2.495,1.109-3.234,2.31-3.049,4.805c0.185,3.142,0.092,6.283,0.092,9.794c11.457-2.864,20.974-0.462,27.535,9.609
		c5.174,7.946,4.712,15.615-1.109,26.518c1.756,0.647,3.419,1.109,5.082,1.848c10.811,4.343,17.925,14.691,18.018,26.333
		c0.092,7.484-0.185,14.968,0.092,22.453c0.185,5.544-1.386,9.887-6.375,12.751C229.732,259.39,206.356,259.39,182.979,259.39z
		 M218.09,250.982c9.702,0,19.404,0,29.013,0c1.848,0,3.419-0.092,3.419-2.68c-0.092-8.316,0.092-16.724-0.185-25.04
		c-0.277-8.223-5.729-15.708-13.767-17.556c-6.098-1.386-12.566-1.571-18.942-1.848c-3.973-0.185-7.946,0.554-11.919,0.647
		c-10.995,0.185-19.588,8.316-19.958,19.311c-0.277,7.761-0.185,15.523-0.185,23.284c0,3.604,0.277,3.788,3.973,3.788
		C199.149,250.982,208.573,250.982,218.09,250.982z M195.822,62.213c0.554,4.066,1.478,8.131,1.571,12.197
		c0.277,13.121,0.37,26.241,0.37,39.362c0,11.919-4.25,22.268-12.289,31.046c-0.832,0.924-1.571,1.848-2.587,3.049
		c4.897,4.989,9.517,9.887,14.322,14.691c0.647,0.647,1.756,0.832,2.68,1.294c0.37-0.924,1.016-1.848,1.016-2.772
		c0.092-4.897,0.092-9.794,0.092-14.691c0-6.006,0.185-6.191,5.821-8.131c10.533-3.604,17.463-10.718,18.295-21.991
		c0.739-10.626,1.201-21.529-0.185-32.062C222.525,67.202,207.834,61.012,195.822,62.213z M218.275,167.639
		c-7.946-0.092-14.137,6.098-14.137,14.229c0,8.039,6.56,13.952,13.952,14.137c6.653,0.185,13.675-5.544,13.952-13.767
		C232.319,174.199,226.036,167.732,218.275,167.639z"/>
	<path fill="#696969" d="M118.762,85.405c1.294-1.201,2.033-1.94,2.772-2.68c4.805-4.805,9.609-9.609,14.506-14.322
		c4.527-4.25,11.457-4.25,15.523-0.092c4.343,4.435,4.25,11.088-0.37,15.708c-8.039,8.131-16.077,16.17-24.208,24.208
		c-4.805,4.712-10.718,4.897-15.615,0.277c-4.25-3.973-8.408-8.131-12.381-12.381c-4.343-4.62-4.25-11.273,0.092-15.523
		c4.343-4.25,10.903-4.158,15.523,0.277C116.083,82.079,117.191,83.649,118.762,85.405z M119.409,102.868
		c6.653-6.837,12.843-13.305,19.126-19.773c1.756-1.848,3.696-3.604,5.359-5.544c0.462-0.554,0.37-1.571,0.554-2.402
		c-0.739,0.185-1.478,0.37-2.218,0.647c-0.37,0.092-0.554,0.554-0.832,0.739c-6.006,6.006-12.012,12.012-18.018,18.11
		c-2.957,3.049-5.636,3.049-8.593,0c-2.218-2.31-4.343-4.528-6.653-6.745c-0.462-0.37-1.478-0.277-2.218-0.37
		c0.092,0.647-0.092,1.571,0.277,1.94C110.354,93.813,114.604,97.971,119.409,102.868z"/>
</g>
</svg>
