<svg version="1.1" 
	id="Layer_1" 
	xmlns="http://www.w3.org/2000/svg"
	viewBox="0 0 100 100">
<path d="M50,10.2c-10.8,0-12.2,0.1-16.4,0.2c-4.2,0.2-7.1,0.9-9.7,1.8c-2.6,1-4.8,2.4-7.1,4.6c-2.2,2.2-3.6,4.4-4.6,7.1
	c-1,2.5-1.7,5.4-1.9,9.7c-0.2,4.2-0.2,5.6-0.2,16.4c0,10.8,0,12.2,0.2,16.4s0.9,7.1,1.9,9.7c1,2.6,2.4,4.8,4.6,7.1
	c2.2,2.2,4.4,3.6,7.1,4.6c2.5,1,5.4,1.7,9.7,1.9c4.2,0.2,5.6,0.2,16.4,0.2s12.2-0.1,16.4-0.2c4.2-0.2,7.1-0.9,9.7-1.9
	c2.6-1,4.8-2.4,7.1-4.6c2.2-2.2,3.6-4.4,4.6-7.1c1-2.5,1.7-5.4,1.9-9.7c0.2-4.2,0.2-5.6,0.2-16.4c0-10.8,0-12.2-0.2-16.4
	s-0.9-7.1-1.9-9.7s-2.4-4.8-4.6-7.1c-2.2-2.2-4.4-3.6-7.1-4.6c-2.5-1-5.4-1.6-9.7-1.8C62.2,10.3,60.8,10.2,50,10.2L50,10.2z
	 M50,17.4c10.6,0,11.9,0.1,16.1,0.2c3.9,0.2,6,0.8,7.4,1.4c1.9,0.7,3.2,1.6,4.6,3c1.4,1.4,2.3,2.7,3,4.6c0.5,1.4,1.2,3.5,1.4,7.4
	c0.2,4.2,0.2,5.5,0.2,16.1s0,11.9-0.2,16.1c-0.2,3.9-0.8,6-1.4,7.4c-0.7,1.9-1.6,3.2-3,4.6c-1.4,1.4-2.7,2.3-4.6,3
	c-1.4,0.5-3.5,1.2-7.4,1.4c-4.2,0.2-5.5,0.2-16.1,0.2s-11.9-0.1-16.1-0.2c-3.9-0.2-6-0.8-7.4-1.4c-1.9-0.7-3.2-1.6-4.6-3
	s-2.3-2.7-3-4.6c-0.5-1.4-1.2-3.5-1.4-7.4c-0.2-4.2-0.2-5.5-0.2-16.1s0-11.9,0.2-16.1c0.2-3.9,0.8-6,1.4-7.4c0.7-1.9,1.6-3.2,3-4.6
	s2.7-2.3,4.6-3c1.4-0.5,3.5-1.2,7.4-1.4C38.1,17.4,39.4,17.4,50,17.4z M71.3,24c-2.6,0-4.8,2.1-4.8,4.8c0,2.6,2.1,4.8,4.8,4.8
	c2.6,0,4.8-2.1,4.8-4.8C76.1,26.2,73.9,24,71.3,24z M50,29.6c-11.3,0-20.4,9.2-20.4,20.5S38.8,70.4,50,70.4s20.5-9.2,20.5-20.4
	C70.5,38.8,61.3,29.6,50,29.6L50,29.6z M50,36.8c7.3,0,13.3,5.9,13.3,13.3c0,7.3-5.9,13.3-13.3,13.3c-7.3,0-13.3-5.9-13.3-13.3
	C36.8,42.6,42.7,36.8,50,36.8z"/>
</svg>
