<?xml version="1.0" encoding="utf-8"?>
<!-- Generator: Adobe Illustrator 17.0.0, SVG Export Plug-In . SVG Version: 6.00 Build 0)  -->
<!DOCTYPE svg PUBLIC "-//W3C//DTD SVG 1.1//EN" "http://www.w3.org/Graphics/SVG/1.1/DTD/svg11.dtd">
<svg version="1.1" id="Layer_1" xmlns="http://www.w3.org/2000/svg" xmlns:xlink="http://www.w3.org/1999/xlink" x="0px" y="0px"
	 width="100px" height="100px" viewBox="0 0 100 100" style="enable-background:new 0 0 100 100;" xml:space="preserve">
<g>
	<g>
		<path d="M50,10.3c-15.4,0-27.9,12.5-27.9,27.9c0,5.2,1.4,10.3,4.2,14.7l22.2,35.7c0.4,0.7,1.2,1.1,2,1.1c0,0,0,0,0,0
			c0.8,0,1.6-0.4,2-1.1L74,52.5c2.6-4.3,3.9-9.3,3.9-14.3C77.9,22.8,65.4,10.3,50,10.3z M70,50.1L50.4,82.9L30.2,50.5
			c-2.3-3.7-3.5-7.9-3.5-12.2c0-12.8,10.5-23.3,23.3-23.3s23.3,10.5,23.3,23.3C73.3,42.4,72.1,46.6,70,50.1z"/>
	</g>
</g>
<g>
	<g>
		<path d="M50,24.2c-7.7,0-14,6.3-14,14c0,7.7,6.2,14,14,14c7.9,0,14-6.4,14-14C64,30.5,57.7,24.2,50,24.2z M50,47.6
			c-5.2,0-9.3-4.2-9.3-9.3c0-5.1,4.2-9.3,9.3-9.3s9.3,4.2,9.3,9.3C59.3,43.3,55.2,47.6,50,47.6z"/>
	</g>
</g>
<g>
</g>
<g>
</g>
<g>
</g>
<g>
</g>
<g>
</g>
<g>
</g>
</svg>
