<?xml version="1.0" encoding="utf-8"?>
<!-- Generator: Adobe Illustrator 17.0.0, SVG Export Plug-In . SVG Version: 6.00 Build 0)  -->
<!DOCTYPE svg PUBLIC "-//W3C//DTD SVG 1.1//EN" "http://www.w3.org/Graphics/SVG/1.1/DTD/svg11.dtd">
<svg version="1.1" id="Layer_1" xmlns="http://www.w3.org/2000/svg" xmlns:xlink="http://www.w3.org/1999/xlink" x="0px" y="0px"
	 width="300px" height="300px" viewBox="0 0 300 300" style="enable-background:new 0 0 300 300;" xml:space="preserve">
<style type="text/css">
	.st0{fill:#DAC0D0;}
	.st1{fill:#696969;}
</style>
<g>
	<polyline class="st0" points="168.8,59.4 171.2,105.4 170.5,115.8 163.6,117.5 142.4,117 123.1,117.7 111.7,115.8 100.6,115 
		100,83.6 99.5,68.8 101.2,62.3 	"/>
	<path class="st0" d="M108,181.7c1.5-0.5,3.1-1,4.7-1.6c2,4.4,5.2,7.3,10.4,6.8c4.2-0.4,6.8-3,8.5-6.8c5.1,1.4,4.5,1.4,4.1,6.2
		c-0.6,7.2-1.9,14.9,2.9,21.4c1.5,2,3.6,3.5,5.3,5.4c0.6,0.6,1.1,1.5,1.6,2.2c-0.8,0.5-1.5,1.2-2.3,1.6c-4,1.6-8.3,2.6-12.1,4.7
		c-5,2.8-7.6,7.6-8.6,14c-0.5-1.1-0.8-1.6-0.9-2.1c-1.6-6.7-5.5-11.5-12-14c-2.8-1.1-5.8-1.9-8.6-3c-0.6-0.2-1.6-0.9-1.5-1.3
		c0.1-0.8,0.6-1.8,1.2-2.2c3.2-2,5.4-4.8,6.8-8.1c2.1-4.8,2.5-9.9,1.7-15.1C108.8,187.3,108.4,184.7,108,181.7z"/>
	<path class="st0" d="M233.8,193.5c-0.7,3-0.9,6.2-2.1,9c-1.8,4.4-7.6,7.5-12.2,7c-5-0.5-10.5-4.9-11.2-9.7c-0.6-4.3-0.7-8.9,0-13.2
		c1-6.1,7.8-10.4,14.1-9.3c5.7,1,10.6,5.3,10.7,12.4c0,1.2,0,2.5,0,3.7C233.4,193.4,233.6,193.5,233.8,193.5z"/>
	<polyline class="st0" points="254.9,103.3 246.9,144.4 244,153 237.4,153 218.6,148.4 201.2,145 191.4,141 181.7,137.8 
		188.1,109.7 190.9,96.4 193.8,90.9 	"/>
	<path class="st1" d="M31.2,100.8c3.4-5.9,9.8-5.6,15.3-7.2c5.7-1.6,11.5-2.9,17.2-4.3c-0.5-3.3,0.3-4.8,2.4-5.5
		c2.1-0.6,3.3,0.3,5,3.6c6.3-1.5,12.6-3,18.9-4.7c0.6-0.2,1.2-1.5,1.2-2.3c0.1-7.6,0-15.2,0.1-22.7c0-1.9,0.2-3.8,0.5-5.7
		c0.6-3.4,3.9-6.1,7.3-6.2c2.5,0,5,0,7.4,0c2.4,0,3.4,1,3.4,3.3c0.1,2.2-1.2,3.7-3.4,3.8c-2,0.1-4,0.1-6,0c-1.5-0.1-2.1,0.7-2.2,2
		c-0.1,1.2,0,2.5,0,3.7c0,14.1,0,28.2,0,42.2c0,3.5,0.4,3.9,3.8,3.9c19,0,38.1,0,57.1,0c3.5,0,3.5,0,3.5-3.5c0-15.2,0-30.3,0-45.5
		c0-2.2-0.6-3-2.9-2.9c-11.8,0.1-23.7,0.1-35.5,0c-1.8,0-3.6-0.1-4.5-2.1c-1.1-2.5,0.3-5,3-5c1.2,0,2.5,0,3.6,0
		c1-3.7,2.4-5.3,4.4-5.1c1.9,0.2,2.9,1.6,3.3,5.1c0.8,0,1.6,0,2.4,0c8.3,0,16.6,0,24.8,0c4.9,0,8.3,3.4,8.3,8.2
		c0,16.2-0.1,32.3,0,48.5c0,5.9-3.5,9.2-9.3,9.3c-7.9,0.1-15.8,0-23.7,0c-0.8,0-1.7,0-2.7,0c-0.1,1-0.1,1.7-0.1,2.5
		c0,4.1,0.2,8.2-0.1,12.3c-0.2,2.8,0.8,4.7,2.7,6.6c3.3,3.3,5.2,7.5,5.2,12.4c0,4.1,0,8.2-0.5,12.2c-0.7,4.7-3.3,8.5-7.2,11.3
		c-0.6,0.4-1.2,0.8-1.7,1.2c-1.3,1.2-1.1,2.2,0.5,2.8c0.4,0.2,0.9,0.2,1.3,0.4c3.9,1.9,7.1,1.8,11.1-0.9c7-4.5,15.7-3.3,22.3,2
		c0.6,0.5,1.9,0.7,2.7,0.5c2-0.4,4-1.1,5.9-1.8c0.6-0.2,1.4-0.9,1.5-1.4c0-0.6-0.4-1.6-1-2c-6.4-4.5-9.1-10.7-9.1-18.3
		c0-4.7,0.1-9.3,2.2-13.7c2.1-4.5,5.4-7.9,10-9.5c2.4-0.9,3.2-2.4,3.6-4.6c2.8-13.9,5.5-27.7,8.4-41.6c1-4.8,5.1-7.3,10-6.3
		c8.7,1.7,17.4,3.4,26.3,5.1c0.8-2.1,1.6-4.3,4.4-4.1c2.3,0.2,2.9,1.4,3.2,5.7c5.7,1.2,11.5,2.3,17.3,3.5c3.2,0.6,6.4,1.2,9.6,1.9
		c3,0.6,4.5,3.1,6.1,5.3c0,2,0,4,0,6c-0.7,2.6-1.4,5.1-2,7.7c-1,4.8-1.8,9.7-3,14.5c-0.3,1.3-1.7,2.8-3,3.4
		c-0.8,0.4-2.7-0.5-3.3-1.3c-0.7-1.1-0.8-2.8-0.6-4.1c1.4-7.1,2.9-14.1,4.4-21.2c0.2-0.9,0.1-1.8,0.2-3.2c-3-0.7-6-1.4-9-2
		c-10.3-2.1-20.6-4.1-30.8-6.2c-7-1.4-14-2.9-21-4.1c-0.6-0.1-1.9,1-2,1.7c-2.3,10.9-4.4,21.9-6.6,32.8c-0.6,3-1.3,6.1-1.9,9.3
		c4.2,0.7,7.9,2.3,11,5c0.4,0.4,1,0.7,1.2,1.1c1.5,3.2,4.3,4.1,7.5,4.7c11,2.1,22.1,4.4,33.1,6.7c1.9,0.4,3.8,0.9,5.8,1.3
		c2.6,0.6,3.2,0.1,3.7-2.6c0.4-2.1,0.9-4.2,1.4-6.2c0.5-2.1,2.2-2.4,4-2.2c1.8,0.2,2.9,1.3,2.6,3.1c-0.5,3.3-0.8,6.7-1.8,9.8
		c-1.9,5.7-6,5.9-10.4,5.1c-7.9-1.3-15.6-3.2-23.4-4.9c-1.7-0.4-2.4,0.3-2.7,1.8c-1.4,6.8-2.7,13.6-4,20.2c3.4,0.7,6.8,1,10.1,2
		c7.2,2.2,12.7,10.2,12.5,17.3c-0.1,4.2,0,8.3-0.5,12.4c-0.7,5.2-4.1,8.8-8.1,11.8c-0.7,0.5-1.1,1.5-1.6,2.2c0.7,0.4,1.4,1,2.1,1.3
		c2.9,1.1,5.9,2,8.8,3.1c7.4,3,11,8.8,12.2,16.5c1,6.2,2.4,12.4,3.6,18.6c0.4,2.2-0.6,3.9-2.8,4.5c-2,0.5-3.7-0.6-4.2-2.9
		c-1.3-6.4-2.6-12.8-3.7-19.3c-0.9-5.9-4-9.7-9.7-11.5c-2.2-0.7-4.3-1.3-5.7-1.7c-2.4,2.1-4.1,4.2-6.3,5.5
		c-3.5,2.1-10.6,0.6-12.2-3.9c-0.6-1.7-1.6-1.9-3.2-1.3c-2.7,1.1-5.7,1.8-8.3,3.2c-4,2.1-5.2,6.1-6,10.3c-1.1,6-2.2,12-3.3,17.9
		c-0.4,2-1.4,3.6-3.7,3.8c-1.7,0.2-3.4-1.5-3.8-3.7c-1.3-6.6-2.5-13.3-3.7-19.9c-0.9-4.7-3.4-7.9-7.9-9.5c-2.2-0.8-4.5-1.5-6.7-2.1
		c-0.5-0.1-1.6,0.2-1.9,0.7c-1.8,3.7-4.7,5.4-8.8,5.4c-4,0-6.9-1.7-8.7-5.3c-0.2-0.4-0.5-0.8-0.8-1.2c-2.6,0.8-5.3,1.4-7.8,2.4
		c-5,1.9-7.5,5.7-8.3,10.9c-1.1,6.4-2.5,12.8-3.7,19.3c-0.4,1.9-1.4,3.2-3.4,3.1c-2.4-0.1-3.4-1.1-3.8-3.5c-1.3-6.9-2.7-13.9-4-20.8
		c-0.8-4.2-3.4-7-7.2-8.6c-2.8-1.2-5.7-2-8.5-3c-2.8,7.2-11.1,8.7-16,4.3c-0.7-0.6-1.4-1.3-1.7-2.1c-0.7-2.1-1.9-2.2-3.7-1.4
		c-1.7,0.7-3.6,1.2-5.4,1.8c-3.4,1.2-5.8,3.5-7.2,6.8c-0.8,2-2.8,3-4.7,2.3c-2.1-0.7-2.7-2.3-2-4.6c1.8-5.2,5.4-8.8,10.5-10.8
		c3.1-1.2,6.3-2.1,9.5-3.3c0.5-0.2,1.3-0.8,1.3-1.2c0-0.6-0.4-1.5-0.9-1.8c-6.7-4.6-9.2-11.1-9.2-18.9c0-5.6,0.2-11,3.6-15.8
		c2.4-3.4,5.1-5.5,11.2-8.2c-1.1-4.5-2.2-9-3.3-13.5c-1-3.7-1-3.7-4.6-2.8c-7.5,1.9-15,3.8-22.5,5.7c-4.8,1.2-9.1-1.4-10.3-6.1
		c-3.8-15.4-7.7-30.8-11.6-46.2c-0.1-0.3-0.4-0.5-0.6-0.8C31.2,104.8,31.2,102.8,31.2,100.8z M91.2,90.1c-0.6,0-0.9-0.1-1.2,0
		c-16.3,4.1-32.7,8.3-49,12.3c-2.2,0.5-2.9,1.3-2.4,3.4c3.8,15.1,7.7,30.2,11.4,45.3c0.5,2,1.4,2.2,2.9,1.8
		c16.4-4.1,32.8-8.2,49.2-12.4c0.6-0.2,1.4-0.7,1.6-1.2c1.3-3.4,3.6-6,6.2-8.4c0.4-0.4,0.8-1.2,0.7-1.7c-1.4-5.7-2.9-11.4-4.4-17.3
		c-2.1,0-4.1,0-6.1,0c-4.1-0.1-8.1-3.2-8.4-6.5c-0.3-3.6-0.4-7.2-0.5-10.8C91.2,93,91.2,91.6,91.2,90.1z M108,181.7
		c0.4,3,0.8,5.6,1.1,8.2c0.7,5.2,0.3,10.3-1.7,15.1c-1.4,3.3-3.7,6.1-6.8,8.1c-0.6,0.4-1.1,1.4-1.2,2.2c0,0.4,0.9,1.1,1.5,1.3
		c2.9,1.1,5.8,1.9,8.6,3c6.5,2.5,10.4,7.2,12,14c0.1,0.5,0.4,1,0.9,2.1c1.1-6.4,3.6-11.2,8.6-14c3.8-2.1,8.1-3.1,12.1-4.7
		c0.8-0.3,1.5-1,2.3-1.6c-0.5-0.8-0.9-1.6-1.6-2.2c-1.8-1.8-3.9-3.4-5.3-5.4c-4.8-6.5-3.5-14.1-2.9-21.4c0.4-4.8,1-4.8-4.1-6.2
		c-1.6,3.7-4.3,6.4-8.5,6.8c-5.1,0.5-8.3-2.4-10.4-6.8C111.1,180.7,109.5,181.2,108,181.7z M201.5,181.5c-0.6-0.2-1.6-0.3-2.5-0.7
		c-1.5-0.7-2.2-0.3-2.9,1.1c-1.7,3.5-4.8,5-8.4,5c-3.6,0-6.8-1.5-8.4-5c-1.3-2.9-3.1-0.8-4.6-0.5c-1.7,0.3-1.3,1.5-0.9,2.6
		c1.6,5,1.3,10.2,0.7,15.3c-0.7,6.1-3.8,10.9-9.1,14.2c-1.4,0.9-1.2,2.4,0.3,3c1.9,0.7,3.9,1.4,5.9,1.9c6.6,1.7,11.7,5.2,14.3,11.7
		c0.7,1.8,1.2,3.8,1.9,6.1c0.2-0.7,0.2-1,0.3-1.3c1.2-6.6,4.4-11.9,10.8-14.7c3.1-1.3,6.3-2.1,9.5-3.3c0.9-0.3,1.6-1.1,2.5-1.7
		c-0.6-0.8-1-1.8-1.8-2.4c-5.5-4-8.3-9.4-8.3-16.1C200.8,191.9,201.3,186.8,201.5,181.5z M200.8,150.5c0-1.3,0-2.3,0-3.2
		c-0.1-8.1-6.7-14.9-15.6-13.2c-4.5,0.8-9.4,5.4-9.7,9.7c-0.3,3.8-0.3,7.6,0,11.4c0.4,5.2,3.8,8.5,8.4,10.2
		c4.5,1.6,8.7,0.7,12.4-2.6C200,159.4,201,154.9,200.8,150.5z M76.3,193.4c0.2,2,0.3,4.1,0.7,6.1c1.2,5.6,6.5,9.9,11.8,10.1
		c5.5,0.1,11.6-4,12.7-9.4c0.8-3.9,0.6-8,0.3-12c-0.3-4.6-3.1-8-7.2-9.8c-4.6-2.1-9.2-1.6-13.3,1.8
		C77.2,183.6,76.2,188.2,76.3,193.4z M142.5,193.5c0,1.8-0.4,4,0.1,5.9c1.4,5.4,5.5,9.2,11.4,10.1c4.5,0.7,10-2.8,12.4-7.4
		c1.8-3.5,1.3-7.2,1.4-10.8c0.1-4.2-1.2-7.9-4.4-10.8c-5.5-5.1-13.9-4.1-18.6,1.8C142.3,185.5,142.1,189.3,142.5,193.5z
		 M233.8,193.5c-0.2,0-0.4-0.1-0.6-0.1c0-1.2,0-2.5,0-3.7c0-7.1-5-11.4-10.7-12.4c-6.3-1.1-13.1,3.2-14.1,9.3
		c-0.7,4.3-0.6,8.9,0,13.2c0.6,4.9,6.2,9.2,11.2,9.7c4.6,0.5,10.4-2.6,12.2-7C232.9,199.7,233.2,196.5,233.8,193.5z M134.8,150.8
		c0-8.4-0.5-10.1-4.1-13.6c-7.4-7.1-18.4-2.4-20.4,5.1c-0.8,3-0.7,6.3-0.9,9.5c-0.4,4.5,1.4,8.1,4.7,11.2c5,4.6,14,3.6,18-1.9
		C134.7,157.7,135.1,154,134.8,150.8z M87.2,151.5c0,0.8-0.1,1.3,0,1.8c1.2,5.1,2.5,10.2,3.9,15.2c0.2,0.8,1.2,1.6,2.1,2
		c1.9,0.8,4.4,0.8,5.7,2.1c3.8,3.8,7.6,2.4,11.5,0.8c0.8-0.3,1.4-0.9,2.1-1.3c-0.5-0.8-0.9-1.7-1.6-2.2c-5.7-4.3-8.7-9.9-8.6-17.1
		c0-1.5,0-3,0-4.9C97.1,149,92.2,150.2,87.2,151.5z M207.9,144.3c0,2.7,0,5.1,0,7.5c0,7.5-2.7,13.7-9.1,18.1c-0.6,0.4-1.1,1.4-1,1.9
		c0.1,0.6,1,1.2,1.6,1.5c1.8,0.7,3.6,1.1,5.4,1.8c2.1,0.8,4.8-0.7,5.2-3c1-5.1,2.1-10.3,3.2-15.4c0.7-3.6,1.3-7.1,2-10.8
		C212.6,145.3,210.2,144.8,207.9,144.3z M126.8,127c0-5.1,0-10,0-15c-4.4,0-8.7,0-13.1,0c1.1,4.7,2.2,9.2,3.3,13.6
		c0.1,0.6,1,1.3,1.6,1.3C121.3,127,124,127,126.8,127z M190.5,173.2c-1.9,0-3.5,0-5.4,0c0,1.4-0.1,2.7,0,4c0.2,1.5,1.1,2.6,2.7,2.6
		c1.6,0,2.5-1.1,2.6-2.6C190.6,175.9,190.5,174.6,190.5,173.2z M92.1,216.9c-1.7,0-3.4,0-5.2,0c0.1,2.1-0.9,4.3,1.3,5.7
		c0.6,0.4,1.9,0.5,2.5,0.1C92.7,221.3,92.2,219.1,92.1,216.9z M124.6,173.3c-1.9,0-3.4,0-4.9,0c0,1.5-0.3,3,0.1,4.1
		c0.4,1,1.5,2.1,2.5,2.4c1.3,0.3,2.2-0.9,2.3-2.2C124.7,176.1,124.6,174.7,124.6,173.3z M152,216.8c0.7,2.3,1.1,4.2,1.8,6
		c0.1,0.3,2.5,0.2,2.6-0.1c0.7-1.8,1-3.8,1.4-5.9C155.8,216.8,154.4,216.8,152,216.8z M217.6,216.8c0.6,2.2,1,4.2,1.7,6
		c0.1,0.3,2.5,0.3,2.7-0.1c0.7-1.8,1-3.7,1.5-5.9C221.3,216.8,219.9,216.8,217.6,216.8z"/>
	<path class="st1" d="M225.2,133c-10.6-0.2-18.8-8.7-18.6-19.3c0.2-10.1,8.8-18.5,18.9-18.4c10.5,0.1,18.9,8.7,18.7,19.3
		C244.1,124.8,235.5,133.1,225.2,133z M214.2,117.5c3.3-2.1,6.4-4.2,9.4-6.2c3-2,6.1-4.1,9.2-6.1c-4.2-3.5-9.8-3.7-14.2-0.7
		C214.4,107.3,212.5,112.7,214.2,117.5z M236.6,111.1c-6.1,4.1-12.3,8.1-18.5,12.2c4.3,3.5,10.1,3.6,14.4,0.4
		C236.5,120.7,238.3,115.3,236.6,111.1z"/>
	<path class="st1" d="M61.4,249c-0.5,2.3-0.9,5.1-1.6,7.9c-0.5,1.9-2.1,2.7-4,2.3c-1.9-0.4-2.9-1.8-2.7-3.8c0.4-2.7,0.9-5.3,1.5-7.9
		c0.5-2,1.8-3,3.9-2.8C60.5,244.8,61.5,246.3,61.4,249z"/>
	<path class="st1" d="M112,78.7c0-3.3,0-6.4,0-9.5c0-0.6-0.5-1.1-0.6-1.6c-0.3-1.3-1-2.9-0.5-3.8c0.6-1,2.3-1.8,3.5-1.9
		c4.2-0.2,8.3-0.1,12.6-0.1c0.3-2.2,1.3-3.9,3.7-3.8c2.4,0,3.3,1.7,3.6,3.8c4.2,0,8.2-0.1,12.2,0.1c1.4,0.1,3,0.8,3.9,1.8
		c1.2,1.3,0.5,2.9-0.6,4.2c-0.4,0.5-0.5,1.3-0.5,1.9c-0.1,1.9,0,3.7,0,5.6c0,1.8-0.5,3.6,2.2,4.2c0.8,0.2,1.7,2.3,1.6,3.4
		c-0.2,1.1-1.6,2.6-2.6,2.7c-3,0.4-6.2,0.3-9.2,0.1c-1.7-0.1-2.7-1.4-2.8-3.2c-0.1-1.8,0.8-2.9,2.4-3.5c0.4-0.2,0.9-0.2,1.4-0.3
		c0-3.3,0-6.5,0-9.8c-2.6,0-5.1,0-7.9,0c0,7.1,0,14.2,0,21.6c1.6,0,3.1,0,4.6,0c2.1,0.1,3.5,1.4,3.6,3.2c0.1,1.9-1.3,3.6-3.4,3.7
		c-5.6,0.1-11.3,0.1-16.9,0c-2.2,0-3.4-1.7-3.3-3.7c0.1-1.9,1.4-3,3.6-3.1c0.8,0,1.5,0,2.3,0c0.7,0,1.4,0,2.2,0c0-7.3,0-14.3,0-21.6
		c-2.6,0-5.1,0-7.9,0c0,3.2,0,6.4,0,9.8c0.4,0.1,0.9,0.2,1.4,0.4c1.7,0.6,2.5,1.8,2.4,3.5c-0.1,1.7-1.2,3-2.9,3.1c-3,0.2-6,0.2-9,0
		c-1.8-0.1-2.9-1.4-2.9-3.3C108.1,80,109.7,79.1,112,78.7z"/>
	<path class="st1" d="M56.6,120.4c0-10.5,8.4-18.8,18.9-18.7c10.3,0,18.7,8.3,18.8,18.7c0.1,10.3-8.5,18.9-18.8,18.9
		C65,139.3,56.6,130.9,56.6,120.4z M76.1,108.8c0.6,2.5,1.2,4.8,1.8,7.1c0.1,0.4,0.3,1,0.6,1.1c2.8,1.3,5.6,2.6,8.6,3.9
		C87.3,114.3,82.3,108.8,76.1,108.8z M69.3,110.5c-5.7,3.3-7.5,10.8-3.9,15.8c1.8-2.3,3.6-4.5,5.3-6.8c0.3-0.4,0.6-1,0.5-1.4
		C70.6,115.6,69.9,113,69.3,110.5z M85,127.7c-1.6-0.7-3-1.3-4.7-2.1c0.5,1.9,0.8,3.3,1.3,5.1C82.7,129.7,83.7,128.8,85,127.7z
		 M70.3,131.3c1.6,0.4,2.8,0.7,4.4,1.1c-0.5-1.8-0.8-3.2-1.3-5.1C72.3,128.8,71.4,129.8,70.3,131.3z"/>
</g>
<g>
</g>
<g>
</g>
<g>
</g>
<g>
</g>
<g>
</g>
<g>
</g>
</svg>
