<?xml version="1.0" encoding="utf-8"?>
<!-- Generator: Adobe Illustrator 17.0.0, SVG Export Plug-In . SVG Version: 6.00 Build 0)  -->
<!DOCTYPE svg PUBLIC "-//W3C//DTD SVG 1.1//EN" "http://www.w3.org/Graphics/SVG/1.1/DTD/svg11.dtd">
<svg version="1.1" id="Layer_1" xmlns="http://www.w3.org/2000/svg" xmlns:xlink="http://www.w3.org/1999/xlink" x="0px" y="0px"
	 width="300px" height="300px" viewBox="0 0 300 300" style="enable-background:new 0 0 300 300;" xml:space="preserve">
<style type="text/css">
	.st0{fill:#DAC0D0;}
	.st1{fill:#696969;}
</style>
<g>
	<polyline class="st0" points="-502.2,-174.6 -499.8,-128.6 -500.5,-118.2 -507.4,-116.5 -528.6,-117 -547.9,-116.3 -559.3,-118.2 
		-570.4,-119 -571,-150.4 -571.5,-165.2 -569.8,-171.7 	"/>
	<path class="st0" d="M-563-52.3c1.5-0.5,3.1-1,4.7-1.6c2,4.4,5.2,7.3,10.4,6.8c4.2-0.4,6.8-3,8.5-6.8c5.1,1.4,4.5,1.4,4.1,6.2
		c-0.6,7.2-1.9,14.9,2.9,21.4c1.5,2,3.6,3.5,5.3,5.4c0.6,0.6,1.1,1.5,1.6,2.2c-0.8,0.5-1.5,1.2-2.3,1.6c-4,1.6-8.3,2.6-12.1,4.7
		c-5,2.8-7.6,7.6-8.6,14c-0.5-1.1-0.8-1.6-0.9-2.1c-1.6-6.7-5.5-11.5-12-14c-2.8-1.1-5.8-1.9-8.6-3c-0.6-0.2-1.6-0.9-1.5-1.3
		c0.1-0.8,0.6-1.8,1.2-2.2c3.2-2,5.4-4.8,6.8-8.1c2.1-4.8,2.5-9.9,1.7-15.1C-562.2-46.7-562.6-49.3-563-52.3z"/>
	<path class="st0" d="M-437.2-40.5c-0.7,3-0.9,6.2-2.1,9c-1.8,4.4-7.6,7.5-12.2,7c-5-0.5-10.5-4.9-11.2-9.7c-0.6-4.3-0.7-8.9,0-13.2
		c1-6.1,7.8-10.4,14.1-9.3c5.7,1,10.6,5.3,10.7,12.4c0,1.2,0,2.5,0,3.7C-437.6-40.6-437.4-40.5-437.2-40.5z"/>
	<polyline class="st0" points="-416.1,-130.7 -424.1,-89.6 -427,-81 -433.6,-81 -452.4,-85.6 -469.8,-89 -479.6,-93 -489.3,-96.2 
		-482.9,-124.3 -480.1,-137.6 -477.2,-143.1 	"/>
	<path class="st1" d="M-639.8-133.2c3.4-5.9,9.8-5.6,15.3-7.2c5.7-1.6,11.5-2.9,17.2-4.3c-0.5-3.3,0.3-4.8,2.4-5.5
		c2.1-0.6,3.3,0.3,5,3.6c6.3-1.5,12.6-3,18.9-4.7c0.6-0.2,1.2-1.5,1.2-2.3c0.1-7.6,0-15.2,0.1-22.7c0-1.9,0.2-3.8,0.5-5.7
		c0.6-3.4,3.9-6.1,7.3-6.2c2.5,0,5,0,7.4,0c2.4,0,3.4,1,3.4,3.3c0.1,2.2-1.2,3.7-3.4,3.8c-2,0.1-4,0.1-6,0c-1.5-0.1-2.1,0.7-2.2,2
		c-0.1,1.2,0,2.5,0,3.7c0,14.1,0,28.2,0,42.2c0,3.5,0.4,3.9,3.8,3.9c19,0,38.1,0,57.1,0c3.5,0,3.5,0,3.5-3.5c0-15.2,0-30.3,0-45.5
		c0-2.2-0.6-3-2.9-2.9c-11.8,0.1-23.7,0.1-35.5,0c-1.8,0-3.6-0.1-4.5-2.1c-1.1-2.5,0.3-5,3-5c1.2,0,2.5,0,3.6,0
		c1-3.7,2.4-5.3,4.4-5.1c1.9,0.2,2.9,1.6,3.3,5.1c0.8,0,1.6,0,2.4,0c8.3,0,16.6,0,24.8,0c4.9,0,8.3,3.4,8.3,8.2
		c0,16.2-0.1,32.3,0,48.5c0,5.9-3.5,9.2-9.3,9.3c-7.9,0.1-15.8,0-23.7,0c-0.8,0-1.7,0-2.7,0c-0.1,1-0.1,1.7-0.1,2.5
		c0,4.1,0.2,8.2-0.1,12.3c-0.2,2.8,0.8,4.7,2.7,6.6c3.3,3.3,5.2,7.5,5.2,12.4c0,4.1,0,8.2-0.5,12.2c-0.7,4.7-3.3,8.5-7.2,11.3
		c-0.6,0.4-1.2,0.8-1.7,1.2c-1.3,1.2-1.1,2.2,0.5,2.8c0.4,0.2,0.9,0.2,1.3,0.4c3.9,1.9,7.1,1.8,11.1-0.9c7-4.5,15.7-3.3,22.3,2
		c0.6,0.5,1.9,0.7,2.7,0.5c2-0.4,4-1.1,5.9-1.8c0.6-0.2,1.4-0.9,1.5-1.4c0-0.6-0.4-1.6-1-2c-6.4-4.5-9.1-10.7-9.1-18.3
		c0-4.7,0.1-9.3,2.2-13.7c2.1-4.5,5.4-7.9,10-9.5c2.4-0.9,3.2-2.4,3.6-4.6c2.8-13.9,5.5-27.7,8.4-41.6c1-4.8,5.1-7.3,10-6.3
		c8.7,1.7,17.4,3.4,26.3,5.1c0.8-2.1,1.6-4.3,4.4-4.1c2.3,0.2,2.9,1.4,3.2,5.7c5.7,1.2,11.5,2.3,17.3,3.5c3.2,0.6,6.4,1.2,9.6,1.9
		c3,0.6,4.5,3.1,6.1,5.3c0,2,0,4,0,6c-0.7,2.6-1.4,5.1-2,7.7c-1,4.8-1.8,9.7-3,14.5c-0.3,1.3-1.7,2.8-3,3.4
		c-0.8,0.4-2.7-0.5-3.3-1.3c-0.7-1.1-0.8-2.8-0.6-4.1c1.4-7.1,2.9-14.1,4.4-21.2c0.2-0.9,0.1-1.8,0.2-3.2c-3-0.7-6-1.4-9-2
		c-10.3-2.1-20.6-4.1-30.8-6.2c-7-1.4-14-2.9-21-4.1c-0.6-0.1-1.9,1-2,1.7c-2.3,10.9-4.4,21.9-6.6,32.8c-0.6,3-1.3,6.1-1.9,9.3
		c4.2,0.7,7.9,2.3,11,5c0.4,0.4,1,0.7,1.2,1.1c1.5,3.2,4.3,4.1,7.5,4.7c11,2.1,22.1,4.4,33.1,6.7c1.9,0.4,3.8,0.9,5.8,1.3
		c2.6,0.6,3.2,0.1,3.7-2.6c0.4-2.1,0.9-4.2,1.4-6.2c0.5-2.1,2.2-2.4,4-2.2c1.8,0.2,2.9,1.3,2.6,3.1c-0.5,3.3-0.8,6.7-1.8,9.8
		c-1.9,5.7-6,5.9-10.4,5.1c-7.9-1.3-15.6-3.2-23.4-4.9c-1.7-0.4-2.4,0.3-2.7,1.8c-1.4,6.8-2.7,13.6-4,20.2c3.4,0.7,6.8,1,10.1,2
		c7.2,2.2,12.7,10.2,12.5,17.3c-0.1,4.2,0,8.3-0.5,12.4c-0.7,5.2-4.1,8.8-8.1,11.8c-0.7,0.5-1.1,1.5-1.6,2.2c0.7,0.4,1.4,1,2.1,1.3
		c2.9,1.1,5.9,2,8.8,3.1c7.4,3,11,8.8,12.2,16.5c1,6.2,2.4,12.4,3.6,18.6c0.4,2.2-0.6,3.9-2.8,4.5c-2,0.5-3.7-0.6-4.2-2.9
		c-1.3-6.4-2.6-12.8-3.7-19.3c-0.9-5.9-4-9.7-9.7-11.5c-2.2-0.7-4.3-1.3-5.7-1.7c-2.4,2.1-4.1,4.2-6.3,5.5C-450-2.5-457-4-458.7-8.6
		c-0.6-1.7-1.6-1.9-3.2-1.3c-2.7,1.1-5.7,1.8-8.3,3.2c-4,2.1-5.2,6.1-6,10.3c-1.1,6-2.2,12-3.3,17.9c-0.4,2-1.4,3.6-3.7,3.8
		c-1.7,0.2-3.4-1.5-3.8-3.7c-1.3-6.6-2.5-13.3-3.7-19.9c-0.9-4.7-3.4-7.9-7.9-9.5c-2.2-0.8-4.5-1.5-6.7-2.1
		c-0.5-0.1-1.6,0.2-1.9,0.7c-1.8,3.7-4.7,5.4-8.8,5.4c-4,0-6.9-1.7-8.7-5.3c-0.2-0.4-0.5-0.8-0.8-1.2c-2.6,0.8-5.3,1.4-7.8,2.4
		c-5,1.9-7.5,5.7-8.3,10.9c-1.1,6.4-2.5,12.8-3.7,19.3c-0.4,1.9-1.4,3.2-3.4,3.1c-2.4-0.1-3.4-1.1-3.8-3.5c-1.3-6.9-2.7-13.9-4-20.8
		c-0.8-4.2-3.4-7-7.2-8.6c-2.8-1.2-5.7-2-8.5-3c-2.8,7.2-11.1,8.7-16,4.3c-0.7-0.6-1.4-1.3-1.7-2.1c-0.7-2.1-1.9-2.2-3.7-1.4
		c-1.7,0.7-3.6,1.2-5.4,1.8c-3.4,1.2-5.8,3.5-7.2,6.8c-0.8,2-2.8,3-4.7,2.3c-2.1-0.7-2.7-2.3-2-4.6c1.8-5.2,5.4-8.8,10.5-10.8
		c3.1-1.2,6.3-2.1,9.5-3.3c0.5-0.2,1.3-0.8,1.3-1.2c0-0.6-0.4-1.5-0.9-1.8c-6.7-4.6-9.2-11.1-9.2-18.9c0-5.6,0.2-11,3.6-15.8
		c2.4-3.4,5.1-5.5,11.2-8.2c-1.1-4.5-2.2-9-3.3-13.5c-1-3.7-1-3.7-4.6-2.8c-7.5,1.9-15,3.8-22.5,5.7c-4.8,1.2-9.1-1.4-10.3-6.1
		c-3.8-15.4-7.7-30.8-11.6-46.2c-0.1-0.3-0.4-0.5-0.6-0.8C-639.8-129.2-639.8-131.2-639.8-133.2z M-579.8-143.9
		c-0.6,0-0.9-0.1-1.2,0c-16.3,4.1-32.7,8.3-49,12.3c-2.2,0.5-2.9,1.3-2.4,3.4c3.8,15.1,7.7,30.2,11.4,45.3c0.5,2,1.4,2.2,2.9,1.8
		c16.4-4.1,32.8-8.2,49.2-12.4c0.6-0.2,1.4-0.7,1.6-1.2c1.3-3.4,3.6-6,6.2-8.4c0.4-0.4,0.8-1.2,0.7-1.7c-1.4-5.7-2.9-11.4-4.4-17.3
		c-2.1,0-4.1,0-6.1,0c-4.1-0.1-8.1-3.2-8.4-6.5c-0.3-3.6-0.4-7.2-0.5-10.8C-579.8-141-579.8-142.4-579.8-143.9z M-563-52.3
		c0.4,3,0.8,5.6,1.1,8.2c0.7,5.2,0.3,10.3-1.7,15.1c-1.4,3.3-3.7,6.1-6.8,8.1c-0.6,0.4-1.1,1.4-1.2,2.2c0,0.4,0.9,1.1,1.5,1.3
		c2.9,1.1,5.8,1.9,8.6,3c6.5,2.5,10.4,7.2,12,14c0.1,0.5,0.4,1,0.9,2.1c1.1-6.4,3.6-11.2,8.6-14c3.8-2.1,8.1-3.1,12.1-4.7
		c0.8-0.3,1.5-1,2.3-1.6c-0.5-0.8-0.9-1.6-1.6-2.2c-1.8-1.8-3.9-3.4-5.3-5.4c-4.8-6.5-3.5-14.1-2.9-21.4c0.4-4.8,1-4.8-4.1-6.2
		c-1.6,3.7-4.3,6.4-8.5,6.8c-5.1,0.5-8.3-2.4-10.4-6.8C-559.9-53.3-561.5-52.8-563-52.3z M-469.5-52.5c-0.6-0.2-1.6-0.3-2.5-0.7
		c-1.5-0.7-2.2-0.3-2.9,1.1c-1.7,3.5-4.8,5-8.4,5c-3.6,0-6.8-1.5-8.4-5c-1.3-2.9-3.1-0.8-4.6-0.5c-1.7,0.3-1.3,1.5-0.9,2.6
		c1.6,5,1.3,10.2,0.7,15.3c-0.7,6.1-3.8,10.9-9.1,14.2c-1.4,0.9-1.2,2.4,0.3,3c1.9,0.7,3.9,1.4,5.9,1.9c6.6,1.7,11.7,5.2,14.3,11.7
		c0.7,1.8,1.2,3.8,1.9,6.1c0.2-0.7,0.2-1,0.3-1.3c1.2-6.6,4.4-11.9,10.8-14.7c3.1-1.3,6.3-2.1,9.5-3.3c0.9-0.3,1.6-1.1,2.5-1.7
		c-0.6-0.8-1-1.8-1.8-2.4c-5.5-4-8.3-9.4-8.3-16.1C-470.2-42.1-469.7-47.2-469.5-52.5z M-470.2-83.5c0-1.3,0-2.3,0-3.2
		c-0.1-8.1-6.7-14.9-15.6-13.2c-4.5,0.8-9.4,5.4-9.7,9.7c-0.3,3.8-0.3,7.6,0,11.4c0.4,5.2,3.8,8.5,8.4,10.2
		c4.5,1.6,8.7,0.7,12.4-2.6C-471-74.6-470-79.1-470.2-83.5z M-594.7-40.6c0.2,2,0.3,4.1,0.7,6.1c1.2,5.6,6.5,9.9,11.8,10.1
		c5.5,0.1,11.6-4,12.7-9.4c0.8-3.9,0.6-8,0.3-12c-0.3-4.6-3.1-8-7.2-9.8c-4.6-2.1-9.2-1.6-13.3,1.8
		C-593.8-50.4-594.8-45.8-594.7-40.6z M-528.5-40.5c0,1.8-0.4,4,0.1,5.9c1.4,5.4,5.5,9.2,11.4,10.1c4.5,0.7,10-2.8,12.4-7.4
		c1.8-3.5,1.3-7.2,1.4-10.8c0.1-4.2-1.2-7.9-4.4-10.8c-5.5-5.1-13.9-4.1-18.6,1.8C-528.7-48.5-528.9-44.7-528.5-40.5z M-437.2-40.5
		c-0.2,0-0.4-0.1-0.6-0.1c0-1.2,0-2.5,0-3.7c0-7.1-5-11.4-10.7-12.4c-6.3-1.1-13.1,3.2-14.1,9.3c-0.7,4.3-0.6,8.9,0,13.2
		c0.6,4.9,6.2,9.2,11.2,9.7c4.6,0.5,10.4-2.6,12.2-7C-438.1-34.3-437.8-37.5-437.2-40.5z M-536.2-83.2c0-8.4-0.5-10.1-4.1-13.6
		c-7.4-7.1-18.4-2.4-20.4,5.1c-0.8,3-0.7,6.3-0.9,9.5c-0.4,4.5,1.4,8.1,4.7,11.2c5,4.6,14,3.6,18-1.9
		C-536.3-76.3-535.9-80-536.2-83.2z M-583.8-82.5c0,0.8-0.1,1.3,0,1.8c1.2,5.1,2.5,10.2,3.9,15.2c0.2,0.8,1.2,1.6,2.1,2
		c1.9,0.8,4.4,0.8,5.7,2.1c3.8,3.8,7.6,2.4,11.5,0.8c0.8-0.3,1.4-0.9,2.1-1.3c-0.5-0.8-0.9-1.7-1.6-2.2c-5.7-4.3-8.7-9.9-8.6-17.1
		c0-1.5,0-3,0-4.9C-573.9-85-578.8-83.8-583.8-82.5z M-463.1-89.7c0,2.7,0,5.1,0,7.5c0,7.5-2.7,13.7-9.1,18.1
		c-0.6,0.4-1.1,1.4-1,1.9c0.1,0.6,1,1.2,1.6,1.5c1.8,0.7,3.6,1.1,5.4,1.8c2.1,0.8,4.8-0.7,5.2-3c1-5.1,2.1-10.3,3.2-15.4
		c0.7-3.6,1.3-7.1,2-10.8C-458.4-88.7-460.8-89.2-463.1-89.7z M-544.2-107c0-5.1,0-10,0-15c-4.4,0-8.7,0-13.1,0
		c1.1,4.7,2.2,9.2,3.3,13.6c0.1,0.6,1,1.3,1.6,1.3C-549.7-107-547-107-544.2-107z M-480.5-60.8c-1.9,0-3.5,0-5.4,0
		c0,1.4-0.1,2.7,0,4c0.2,1.5,1.1,2.6,2.7,2.6c1.6,0,2.5-1.1,2.6-2.6C-480.4-58.1-480.5-59.4-480.5-60.8z M-578.9-17.1
		c-1.7,0-3.4,0-5.2,0c0.1,2.1-0.9,4.3,1.3,5.7c0.6,0.4,1.9,0.5,2.5,0.1C-578.3-12.7-578.8-14.9-578.9-17.1z M-546.4-60.7
		c-1.9,0-3.4,0-4.9,0c0,1.5-0.3,3,0.1,4.1c0.4,1,1.5,2.1,2.5,2.4c1.3,0.3,2.2-0.9,2.3-2.2C-546.3-57.9-546.4-59.3-546.4-60.7z
		 M-519-17.2c0.7,2.3,1.1,4.2,1.8,6c0.1,0.3,2.5,0.2,2.6-0.1c0.7-1.8,1-3.8,1.4-5.9C-515.2-17.2-516.6-17.2-519-17.2z M-453.4-17.2
		c0.6,2.2,1,4.2,1.7,6c0.1,0.3,2.5,0.3,2.7-0.1c0.7-1.8,1-3.7,1.5-5.9C-449.7-17.2-451.1-17.2-453.4-17.2z"/>
	<path class="st1" d="M-445.8-101c-10.6-0.2-18.8-8.7-18.6-19.3c0.2-10.1,8.8-18.5,18.9-18.4c10.5,0.1,18.9,8.7,18.7,19.3
		C-426.9-109.2-435.5-100.9-445.8-101z M-456.8-116.5c3.3-2.1,6.4-4.2,9.4-6.2c3-2,6.1-4.1,9.2-6.1c-4.2-3.5-9.8-3.7-14.2-0.7
		C-456.6-126.7-458.5-121.3-456.8-116.5z M-434.4-122.9c-6.1,4.1-12.3,8.1-18.5,12.2c4.3,3.5,10.1,3.6,14.4,0.4
		C-434.5-113.3-432.7-118.7-434.4-122.9z"/>
	<path class="st1" d="M-609.6,15c-0.5,2.3-0.9,5.1-1.6,7.9c-0.5,1.9-2.1,2.7-4,2.3c-1.9-0.4-2.9-1.8-2.7-3.8
		c0.4-2.7,0.9-5.3,1.5-7.9c0.5-2,1.8-3,3.9-2.8C-610.5,10.8-609.5,12.3-609.6,15z"/>
	<path class="st1" d="M-559-155.3c0-3.3,0-6.4,0-9.5c0-0.6-0.5-1.1-0.6-1.6c-0.3-1.3-1-2.9-0.5-3.8c0.6-1,2.3-1.8,3.5-1.9
		c4.2-0.2,8.3-0.1,12.6-0.1c0.3-2.2,1.3-3.9,3.7-3.8c2.4,0,3.3,1.7,3.6,3.8c4.2,0,8.2-0.1,12.2,0.1c1.4,0.1,3,0.8,3.9,1.8
		c1.2,1.3,0.5,2.9-0.6,4.2c-0.4,0.5-0.5,1.3-0.5,1.9c-0.1,1.9,0,3.7,0,5.6c0,1.8-0.5,3.6,2.2,4.2c0.8,0.2,1.7,2.3,1.6,3.4
		c-0.2,1.1-1.6,2.6-2.6,2.7c-3,0.4-6.2,0.3-9.2,0.1c-1.7-0.1-2.7-1.4-2.8-3.2c-0.1-1.8,0.8-2.9,2.4-3.5c0.4-0.2,0.9-0.2,1.4-0.3
		c0-3.3,0-6.5,0-9.8c-2.6,0-5.1,0-7.9,0c0,7.1,0,14.2,0,21.6c1.6,0,3.1,0,4.6,0c2.1,0.1,3.5,1.4,3.6,3.2c0.1,1.9-1.3,3.6-3.4,3.7
		c-5.6,0.1-11.3,0.1-16.9,0c-2.2,0-3.4-1.7-3.3-3.7c0.1-1.9,1.4-3,3.6-3.1c0.8,0,1.5,0,2.3,0c0.7,0,1.4,0,2.2,0c0-7.3,0-14.3,0-21.6
		c-2.6,0-5.1,0-7.9,0c0,3.2,0,6.4,0,9.8c0.4,0.1,0.9,0.2,1.4,0.4c1.7,0.6,2.5,1.8,2.4,3.5c-0.1,1.7-1.2,3-2.9,3.1c-3,0.2-6,0.2-9,0
		c-1.8-0.1-2.9-1.4-2.9-3.3C-562.9-154-561.3-154.9-559-155.3z"/>
	<path class="st1" d="M-614.4-113.6c0-10.5,8.4-18.8,18.9-18.7c10.3,0,18.7,8.3,18.8,18.7c0.1,10.3-8.5,18.9-18.8,18.9
		C-606-94.7-614.4-103.1-614.4-113.6z M-594.9-125.2c0.6,2.5,1.2,4.8,1.8,7.1c0.1,0.4,0.3,1,0.6,1.1c2.8,1.3,5.6,2.6,8.6,3.9
		C-583.7-119.7-588.7-125.2-594.9-125.2z M-601.7-123.5c-5.7,3.3-7.5,10.8-3.9,15.8c1.8-2.3,3.6-4.5,5.3-6.8c0.3-0.4,0.6-1,0.5-1.4
		C-600.4-118.4-601.1-121-601.7-123.5z M-586-106.3c-1.6-0.7-3-1.3-4.7-2.1c0.5,1.9,0.8,3.3,1.3,5.1
		C-588.3-104.3-587.3-105.2-586-106.3z M-600.7-102.7c1.6,0.4,2.8,0.7,4.4,1.1c-0.5-1.8-0.8-3.2-1.3-5.1
		C-598.7-105.2-599.6-104.2-600.7-102.7z"/>
</g>
<g>
	<path class="st0" d="M179.3,256.2c-14.3,0-28.5,0-42.8,0c2.4-1.2,2.7-3.1,2.7-5.3c0-37.2,0-74.4,0-111.6c0-2.6-1-4.3-3.5-5.8
		c-11.1-6.5-16.6-16-16.9-27.8c-0.1-6.3,0-12.6,0-18.9c0-3.9,2.1-5.9,6.6-5.9c7.7,0,15.4,0,23,0c1,0,2,0.1,2.9,0.5
		c2.6,1,3.8,3.2,3.4,5.6c-0.4,2.3-2.6,4.1-5.4,4.1c-4.7,0.1-9.5,0-14.2,0.1c-3.5,0-4.8,1.2-4.8,4.3c0,3.8,0.1,7.6,0,11.4
		c-0.1,2.4,1,3.8,3.5,4.8c6.2,2.3,12.4,4.7,18.6,7.1c0.7,0.3,1.5,0.5,2.2,0.6c1.9,0.3,3.2-0.4,3.9-1.9c0.7-1.5,0.3-2.9-1.1-3.9
		c-0.7-0.5-1.5-0.8-2.2-1.1c-5.2-2-10.4-4-15.6-6c-0.7-0.3-1.6-0.9-1.6-1.4c-0.2-2.3-0.1-4.5-0.1-7c3.6,0,7,0,10.4,0
		c4.3,0,8.1-1.2,10.9-4.3c1.3-1.5,2.2-3.3,3.4-5.1c5.2,1.6,10.1,0.6,13.9-2.4c2.8,1.1,5.2,2.5,7.8,2.9c2.5,0.4,5.3-0.2,8-0.3
		c0,4.7,0.1,9.6,0,14.4c-0.1,3.3,0,6.7-0.8,9.9c-3.3,14-16,23.6-32.1,24.5c-1.2,0.1-2.5,0.3-3.6,0.7c-1.6,0.8-2.1,2.2-1.5,3.8
		c0.7,1.8,2.4,2.4,4.4,2.4c5.4-0.2,10.6-1.1,15.6-3c0.7-0.3,1.3-0.4,2.2-0.7c0,1.2,0,2,0,2.8c0,35.9,0,71.8,0,107.7
		C176.5,253.4,177,255.2,179.3,256.2z"/>
	<path class="st0" d="M159.5,66.6c0-3.5,0-6.9,0-10.4c0-3.2,2.5-5.6,5.7-5.7c3.2,0,5.8,2.4,5.9,5.6c0.1,7,0.1,14.1,0,21.1
		c0,3.2-2.7,5.6-5.9,5.5c-3.1-0.1-5.6-2.5-5.6-5.6C159.5,73.6,159.5,70.1,159.5,66.6z"/>
	<path class="st0" d="M151.9,74.6c-3.9-0.2-7.5-0.4-11.5-0.6c0-0.7,0-1.5,0-2.3c0-5.2,0-10.4,0-15.6c0-3.2,2.4-5.5,5.6-5.6
		c3-0.1,5.8,2.1,5.9,5.1C152.1,61.9,151.9,68.3,151.9,74.6z"/>
	<path class="st0" d="M132.7,74.1c-3.8,0-7.4,0-11.4,0c0-0.9,0-1.7,0-2.5c0-5.2,0-10.3,0-15.5c0-3.2,2.4-5.5,5.6-5.5
		c3.1-0.1,5.8,2.2,5.8,5.3c0.1,5.7,0,11.3,0,17C132.8,73.2,132.7,73.5,132.7,74.1z"/>
	<path class="st0" d="M190.2,70.7c0,2.2,0,4.4,0,6.6c-0.1,3.1-2.6,5.4-5.7,5.4c-3.1,0-5.8-2.3-5.8-5.4c-0.1-4.5-0.1-9,0-13.4
		c0.1-3.1,2.7-5.3,5.9-5.3c3.2,0,5.6,2.3,5.7,5.4C190.3,66.3,190.2,68.5,190.2,70.7z"/>
	<path class="st1" d="M173.7,256.2c-2.3-1.1-2.8-2.8-2.8-5c0-35.9,0-71.8,0-107.7c0-0.8,0-1.7,0-2.8c-0.9,0.3-1.6,0.5-2.2,0.7
		c-5,2-10.2,2.8-15.6,3c-2,0.1-3.7-0.5-4.4-2.4c-0.6-1.5-0.1-3,1.5-3.8c1-0.5,2.4-0.7,3.6-0.7c16.1-0.9,28.8-10.4,32.1-24.5
		c0.7-3.2,0.7-6.6,0.8-9.9c0.1-4.8,0-9.7,0-14.4c-2.8,0.2-5.5,0.7-8,0.3c-2.6-0.4-4.9-1.8-7.8-2.9c-3.8,3-8.7,4-13.9,2.4
		c-1.2,1.8-2,3.6-3.4,5.1c-2.7,3.1-6.6,4.3-10.9,4.3c-3.4,0-6.8,0-10.4,0c0,2.5-0.1,4.8,0.1,7c0,0.5,1,1.1,1.6,1.4
		c5.2,2,10.4,4,15.6,6c0.8,0.3,1.6,0.6,2.2,1.1c1.5,1,1.8,2.4,1.1,3.9c-0.7,1.5-2.1,2.2-3.9,1.9c-0.8-0.1-1.5-0.3-2.2-0.6
		c-6.2-2.4-12.4-4.8-18.6-7.1c-2.5-0.9-3.6-2.3-3.5-4.8c0.1-3.8,0-7.6,0-11.4c0-3.1,1.3-4.3,4.8-4.3c4.7-0.1,9.5,0,14.2-0.1
		c2.7-0.1,4.9-1.9,5.4-4.1c0.5-2.3-0.8-4.6-3.4-5.6c-0.9-0.3-2-0.5-2.9-0.5c-7.7,0-15.4,0-23,0c-4.4,0-6.6,1.9-6.6,5.9
		c0,6.3-0.1,12.6,0,18.9c0.3,11.8,5.7,21.2,16.9,27.8c2.5,1.5,3.5,3.1,3.5,5.8c-0.1,37.2-0.1,74.4,0,111.6c0,2.2-0.3,4.1-2.7,5.3
		c-0.8,0-1.6,0-2.3,0c-2.2-1.1-2.7-2.9-2.7-5.1c0-36.6,0-73.2,0.1-109.8c0-1.4-0.3-2.4-1.7-3.3c-12.2-8-18.3-18.9-18.5-32.3
		c-0.1-6.4,0-12.7,0-19.1c0-3.3,1.1-6.2,3.5-8.8c0.6-0.6,0.9-1.7,0.9-2.6c0.1-6.2,0-12.4,0.1-18.7c0.1-6.7,3.2-10.5,10.4-12.6
		c0.2-0.1,0.4-0.2,0.6-0.3c1.6,0,3.1,0,4.7,0c2.5,1,4.9,2.1,7.3,3.1c2.2-1,4.6-2,7.1-3.1c1.6,0,3.1,0,4.7,0c2.5,1,5,2.1,7.5,3.1
		c2.2-1,4.6-2,7-3.1c1.7,0,3.4,0,5.1,0c3.1,1.1,6.2,2.2,8.1,4.9c0.9,1.3,1.7,2.8,2.3,3.8c3.2-0.1,6.4-0.6,9.4-0.1
		c6.3,1.1,10.1,6,10.1,12.3c0,14,0.1,27.9,0,41.9c0,2.7-0.3,5.5-0.9,8.2c-1.7,7.8-6,14.5-12.6,19.8c-1.6,1.3-2.2,2.5-2.2,4.4
		c0.1,37.4,0,74.8,0.1,112.2c0,2.1-0.4,3.9-2.5,5.2C175.3,256.2,174.5,256.2,173.7,256.2z M156.1,66.6c0,3.5,0,7,0,10.6
		c0,3.1,2.5,5.5,5.6,5.6c3.2,0.1,5.9-2.3,5.9-5.5c0.1-7,0.1-14.1,0-21.1c0-3.2-2.6-5.6-5.9-5.6c-3.2,0-5.7,2.4-5.7,5.7
		C156,59.7,156.1,63.1,156.1,66.6z M148.5,74.6c0-6.3,0.1-12.6,0-19c-0.1-3-2.9-5.2-5.9-5.1c-3.2,0.1-5.5,2.4-5.6,5.6
		c0,5.2,0,10.4,0,15.6c0,0.8,0,1.6,0,2.3C140.9,74.2,144.5,74.4,148.5,74.6z M129.2,74.1c0.1-0.6,0.1-0.9,0.1-1.2
		c0-5.7,0.1-11.3,0-17c-0.1-3.1-2.7-5.4-5.8-5.3c-3.2,0.1-5.5,2.4-5.6,5.5c0,5.2,0,10.3,0,15.5c0,0.8,0,1.6,0,2.5
		C121.7,74.1,125.4,74.1,129.2,74.1z M186.8,70.7c0-2.2,0-4.4,0-6.6c-0.1-3.1-2.5-5.4-5.7-5.4c-3.2,0-5.8,2.2-5.9,5.3
		c-0.1,4.5-0.1,9,0,13.4c0.1,3,2.7,5.4,5.8,5.4c3.1,0,5.7-2.4,5.7-5.4C186.8,75.1,186.8,72.9,186.8,70.7z"/>
	<path class="st1" d="M269.1,158.3c-1.5,3.8-2.7,7.8-4.7,11.4c-1.4,2.5-3.8,4.7-6,6.8c-1.2,1.1-1.7,2.1-1.7,3.6
		c0,23.4,0,46.7,0,70.1c0,1,0,1.9-0.2,2.9c-0.4,1.6-1.8,2.7-3.5,2.4c-1.3-0.2-2.6-1.2-3.5-2.2c-0.6-0.6-0.4-1.9-0.4-2.8
		c0-21.9,0-43.7,0-65.6c0-0.8,0-1.6,0-2.3c-4,0.7-8,1.4-11.9,2c-0.9,0.1-1.9,0.1-2.8-0.1c-1.9-0.4-2.9-1.6-2.8-3.3
		c0.1-1.6,1-2.8,2.9-3.1c1.7-0.3,3.4-0.3,5.1-0.5c11.9-1.8,20.7-10.2,21.6-20.9c0.4-5.1,0.1-10.2,0.1-15.3
		c-5.6,0.5-6.2,0.4-11.1-2.1c-4.2,2.4-5.9,2.7-10.9,2.1c-1.4,3.1-3.7,5.8-7.5,6.4c-3.5,0.6-7.2,0.5-11.2,0.8c0,1.2-0.1,2.6,0.1,3.9
		c0.1,0.5,0.8,1.1,1.4,1.3c4,1.6,8,3.1,11.9,4.6c2,0.8,3.2,2,2.8,4c-0.4,1.9-2.6,3.2-4.8,2.4c-5.8-2-11.5-4.2-17.1-6.5
		c-1-0.4-1.8-2-1.9-3c-0.2-3.4-0.1-6.8-0.1-10.2c0.1-2.3,1.5-3.5,4.1-3.6c3.4-0.1,6.8,0,10.2,0c2.9,0,4.7-1.3,4.7-3.3
		c0-2-1.8-3.3-4.7-3.3c-5.8,0-11.6,0-17.4,0c-2.5,0-4.2,1.1-4.2,3c0,6.8-0.3,13.6,0.5,20.3c0.8,6.9,5.2,12.3,11.8,16.2
		c2.5,1.4,3.5,3.1,3.5,5.8c-0.1,23.4-0.1,46.7-0.1,70.1c0,0.9,0,1.8-0.3,2.7c-0.5,1.7-1.9,2.5-3.8,2.4c-1.9-0.1-3.2-1.1-3.4-2.8
		c-0.1-0.9-0.1-1.8-0.1-2.7c0-22.5,0-45.1-0.1-67.6c0-1-0.4-2.3-1.2-2.8c-9.3-6.4-14.2-14.8-14.5-25.3c-0.1-5.7-0.1-11.3,0.2-17
		c0.1-1.7,1.4-3.4,2.1-5.1c0.4-1,1-2,1.1-3c0.1-4.4,0.1-8.9,0-13.3c-0.1-4.3,1.5-7.9,5.9-10.1c4.3-2.1,8.5-1.6,12.4,0.9
		c0.1,0.1,0.3,0.1,0.4,0.1c5.9-3.1,9-3.1,14.9,0c7-4.3,14.7-2.5,18.3,4.3c2.4,0,4.7-0.3,6.9,0.1c4.7,0.8,7,3.9,8.6,7.6
		C269.1,132,269.1,145.2,269.1,158.3z M246.6,123.2c0-2.6,0-5.2,0-7.9c-0.1-2.5-1.5-3.9-3.7-3.9c-2.2,0-3.6,1.5-3.6,4
		c0,5.2,0,10.4,0,15.5c0,2.5,1.3,4,3.5,4.1c2.2,0.1,3.7-1.5,3.8-4.1C246.6,128.3,246.6,125.7,246.6,123.2z M216.6,128.2
		c0-4.7,0.1-9.4,0-14c0-1.7-1.4-2.8-3.3-2.9c-1.9-0.1-3.5,0.8-3.6,2.5c-0.2,4.7-0.1,9.5-0.1,14.3C211.8,128.2,214,128.2,216.6,128.2
		z M254.2,126.2C254.2,126.2,254.2,126.2,254.2,126.2c0,1.6,0,3.2,0,4.8c0,0.1,0,0.3,0,0.4c0.1,2.1,1.4,3.4,3.4,3.6
		c1.9,0.1,3.7-1.2,3.8-3.2c0.2-3.7,0.2-7.3,0-11c-0.1-2-1.9-3.3-3.9-3.1c-1.9,0.1-3.3,1.4-3.4,3.4
		C254.2,122.8,254.2,124.5,254.2,126.2z M231.6,128.3c0-0.6,0-1.2,0-1.7c0-3.9,0-7.9,0-11.8c0-2.1-1.5-3.4-3.5-3.4
		c-2.1-0.1-3.7,1.3-3.7,3.4c-0.1,3,0,6.1-0.1,9.1c0,1.4,0,2.8,0,4.4C226.9,128.3,229.1,128.3,231.6,128.3z"/>
	<path class="st1" d="M30.9,150c1.1-1.8,2.2-3.6,3.3-5.4c0.3-0.6,0.5-1.3,0.5-2c0-4.7,0.1-9.4,0-14.1c-0.1-4.7,1.2-8.8,6.1-11.3
		c4.8-2.4,9.4-1.6,13.7,1.3c5.3-3.6,10.7-3.6,16-0.1c7.5-4.9,16.1-2.6,19.4,4.5c2.7,0,5.4-0.4,7.8,0.1c5,1,8.5,4.9,8.5,9.4
		c0.1,13.3,0.3,26.6-0.2,39.8c-0.3,8-4.5,14.7-11,20.2c-1.4,1.1-1.9,2.2-1.9,3.9c0.1,18.3,0,36.7,0.1,55c0,2.1-0.6,3.8-2.8,4.8
		c-0.8,0-1.6,0-2.3,0c-2.1-1.1-2.5-2.9-2.5-4.9c0.1-16.7,0-33.5,0-50.2c0-0.8,0-1.6,0-2.1c-4.5,0.8-8.7,1.7-12.9,2.2
		c-3.7,0.5-5.8-0.8-5.9-3.1c-0.1-2.2,1.8-3.4,5.4-3.6c12.2-0.6,23.2-8.2,25.5-18.8c1.4-6.8,1.1-13.9,1.6-21.2
		c-5.1,1.5-9.1,0.6-12.8-1.9c-3.5,2.6-7.4,3.2-11.8,2.2c-2.6,6.3-8.1,8.1-15.1,7.7c-1.7-0.1-3.3,0-5.1,0c0,1.4,0.1,2.6,0,3.6
		c-0.2,1.6,0.5,2.3,2.1,2.9c4.1,1.5,8.1,3.1,12.2,4.6c2.8,1.1,3.8,2.9,2.9,4.9c-0.9,1.8-3.1,2.4-5.8,1.4c-5.3-2-10.5-4.1-15.8-6
		c-2.3-0.8-3.2-2.2-3.2-4.3c0-3,0-5.9,0-8.9c0-3.9,1.1-4.9,5.5-4.9c3.4,0,6.8,0.1,10.2,0c3.4-0.1,5.2-2.1,4.5-4.7
		c-0.5-1.8-2-2.8-4.8-2.8c-6.4,0-12.7-0.1-19.1,0c-3.3,0-4.9,1.4-4.9,4.4c-0.1,5.3-0.1,10.7,0,16c0.3,9.8,4.9,17.6,14.2,22.9
		c2.1,1.2,2.8,2.7,2.8,4.8c-0.1,18.4-0.1,36.8,0,55.2c0,2.1-0.6,3.8-2.8,4.8c-0.8,0-1.6,0-2.3,0c-2.1-1.1-2.6-2.8-2.6-4.9
		c0-17.5,0-35,0.1-52.5c0-1.6-0.5-2.5-1.9-3.4c-5-3.3-9-7.4-11.4-12.6c-1.6-3.5-2.5-7.2-3.7-10.8C30.9,164.7,30.9,157.3,30.9,150z
		 M82.7,135.7c0-2.8,0-5.7,0-8.5c-0.1-2.8-1.7-4.5-4.2-4.5c-2.5,0-4.2,1.8-4.2,4.6c-0.1,5.5-0.1,11.1,0,16.6c0,2.9,1.6,4.5,4.2,4.6
		c2.7,0,4.2-1.6,4.3-4.6C82.8,141.1,82.7,138.4,82.7,135.7z M66.7,141.5c0-5.1,0.1-10.1,0-15.2c0-2.2-1.9-3.7-4.1-3.7
		c-2.2,0-4,1.5-4.2,3.7c-0.1,1.3,0,2.6,0,3.9c0,3.6,0,7.3,0,10.9C61.2,141.3,63.8,141.4,66.7,141.5z M50.6,141.2
		c0-5.1,0.1-10.1-0.1-15c-0.1-2.1-2-3.5-4.1-3.5c-1.9,0-3.9,1.4-3.9,3.2c-0.1,5.1,0,10.2,0,15.4C45.1,141.2,47.7,141.2,50.6,141.2z
		 M90.4,138.9c0,1.7,0,3.5,0,5.2c0,0.1,0,0.3,0,0.4c0.2,2.4,1.8,3.9,4.2,3.9c2.4,0,4.1-1.5,4.2-3.9c0.1-3.7,0.1-7.5,0-11.2
		c-0.1-2.3-1.9-3.9-4.2-3.9c-2.4,0-4.1,1.6-4.2,4.1C90.3,135.3,90.4,137.1,90.4,138.9z"/>
</g>
<g>
</g>
<g>
</g>
<g>
</g>
<g>
</g>
<g>
</g>
<g>
</g>
</svg>
