<?xml version="1.0" encoding="utf-8"?>
<!-- Generator: Adobe Illustrator 17.0.0, SVG Export Plug-In . SVG Version: 6.00 Build 0)  -->
<!DOCTYPE svg PUBLIC "-//W3C//DTD SVG 1.1//EN" "http://www.w3.org/Graphics/SVG/1.1/DTD/svg11.dtd">
<svg version="1.1" id="Layer_1" xmlns="http://www.w3.org/2000/svg" xmlns:xlink="http://www.w3.org/1999/xlink" x="0px" y="0px"
	 width="300px" height="300px" viewBox="0 0 300 300" style="enable-background:new 0 0 300 300;" xml:space="preserve">
<style type="text/css">
	.st0{fill:#DAC0D0;}
	.st1{fill:#696969;}
</style>
<g>
	<g>
		<path class="st0" d="M100.3,147.9c-1.5,0.6-2.9,1.5-4.4,1.7c-2.7,0.3-5.5,0.1-8.7,0.1c-0.1,1.7-0.3,3.1-0.3,4.4
			c0,7.7,0.1,15.4,0.1,23.1c0,1.8,0.3,3.8-2.5,3.7c-2.6-0.1-2.2-2-2.2-3.6c0-7.8,0-15.7,0-23.5c0-1.1,0-2.4,0-4
			c-3.4,0-6.4-0.1-9.5,0c-1.9,0.1-3.4-0.6-3.4-2.6c0-2.2,1.7-2.6,3.5-2.5c3,0.1,5.9,0,9.4,0c0-3.6-0.1-7,0.1-10.4
			c0.1-1.4,0.8-2.8,1.2-4.2c0.7,0,1.3,0,2,0c0.4,1.1,1.2,2.3,1.3,3.5c0.2,2.5,0.3,5,0,7.6c-0.3,3,0.9,3.7,3.7,3.7
			c3.2,0,6.3,0.8,9.5,1.1C100.3,146.6,100.3,147.2,100.3,147.9z"/>
	</g>
	<g>
		<circle class="st0" cx="98.6" cy="74.5" r="24.8"/>
		<path class="st1" d="M237.3,229.4c7.3,4.2,12.8,9.9,17.4,16.4c1.5,2.1,2,4.6,0.3,6.3c-1.1,1.2-3.4,2-5.1,1.9
			c-1.3-0.1-2.6-1.7-3.8-2.7c-4.2-4-8-8.5-12.7-12c-6.1-4.5-13-4.2-19.7-0.7c-5.7,3-10,7.5-13.8,12.6c-2.4,3.2-5.3,4-7.8,2.2
			c-2.6-1.8-2.9-4.8-0.5-8.2c4.3-6,9.4-11.1,15.7-14.9c0.7-0.4,1.4-1,2.2-1.5c-14.4-11.6-12.2-29-3.5-37.9
			c9.3-9.6,25.1-10.1,34.9-0.8c5.8,5.5,8.4,12.4,7.7,20.3C247.9,218.5,243.9,224.5,237.3,229.4z M209.4,208.4
			c0,8.1,6.4,14.5,14.4,14.5s14.5-6.5,14.5-14.5c0-8-6.4-14.4-14.5-14.4C215.7,193.8,209.4,200.2,209.4,208.4z"/>
		<path class="st0" d="M209.4,121.9c-7.6-5.9-11.2-13.6-10.2-23.2c0.6-6.2,3.3-11.3,7.9-15.5c10.2-9.1,25.5-8.4,34.8,1.4
			c10.2,10.8,8.6,25.1-4.5,38.1c6.8,4,12.3,9.3,16.7,15.7c1.1,1.6,1.7,4,1.3,5.7c-0.3,1.3-2.3,3-3.7,3.1c-1.7,0.1-3.9-0.8-5.1-2
			c-3.2-3-5.7-6.8-9-9.7c-9.6-8.4-19.4-8.5-29.1-0.4c-3.3,2.7-6.1,6.1-8.8,9.3c-2.6,3-5.4,3.8-7.9,1.8c-2.5-1.8-2.7-4.9-0.4-7.9
			c2.5-3.2,5.1-6.3,8.1-9.1C202.5,126.7,206,124.4,209.4,121.9z M209.4,101.5c0,7.9,6.4,14.5,14.3,14.6c7.8,0.1,14.5-6.6,14.5-14.4
			c0.1-8.2-6.5-14.8-14.5-14.8C215.8,86.9,209.4,93.4,209.4,101.5z"/>
		<path class="st1" d="M65.9,96.3c-8.4-6.6-12.5-15.3-11.4-26c0.7-6.9,3.7-12.8,8.9-17.3c11.4-10.2,28.5-9.5,39,1.6
			c11.4,12.1,9.7,28-5,42.7c7.6,4.5,13.8,10.5,18.7,17.6c1.1,1.8,1.8,4.4,1.5,6.4c-0.3,1.4-2.6,3.3-4.1,3.4
			c-1.8,0.2-4.3-0.9-5.7-2.2c-3.5-3.3-6.3-7.6-10-10.8c-10.7-9.4-21.6-9.6-32.6-0.4c-3.6,3.1-6.8,6.8-9.9,10.5
			c-2.8,3.3-6,4.3-8.9,2.1c-2.7-2-3.1-5.5-0.5-8.8c2.8-3.6,5.7-7.1,9.1-10.2C58.2,101.7,62,99.3,65.9,96.3z M65.9,73.5
			c0,8.9,7.2,16.3,16,16.4s16.3-7.4,16.3-16.2c0.1-9.1-7.3-16.5-16.3-16.5C73,57.2,65.9,64.5,65.9,73.5z"/>
		<path class="st1" d="M170.9,186.2c-3.4-4.4-6.2-8.1-9-11.7c-7.7-9.9-15.3-19.6-23-29.5c-0.4-0.6-1.2-1.1-1.3-1.8
			c-0.2-1.1-0.2-2.9,0.3-3.1c0.9-0.4,2.4-0.3,3.4,0.2c0.8,0.4,1.3,1.4,1.9,2.2c9.7,12.4,19.4,24.9,29,37.3c0.7,1,1.5,1.8,3,2.6
			c0-2.6-0.3-5.2,0.1-7.7c0.2-1.2,1.4-2.3,2.1-3.4c0.9,1.1,2.5,2,2.6,3.1c0.4,5,0.4,10.1,0.3,15.2c-0.1,2.3-1.8,3.5-4.1,3.1
			c-4.8-1-9.5-1.8-14.2-3.2c-1.1-0.3-1.7-2-2.5-3.1c1.1-0.5,2.4-1.6,3.4-1.6C165.4,184.8,167.7,185.5,170.9,186.2z"/>
		<path class="st1" d="M177.1,111.4c-1.4-3.2-2.4-5.5-3.3-7.7c-0.6-1.6-1.1-3.3,1-4.2c2.1-0.9,3,0.7,3.7,2.3
			c1.8,4.1,3.7,8.3,5.5,12.4c1.3,3.1,0.4,4.8-2.8,5.5c-4.7,1-9.2,1.9-14,2.6c-1,0.1-2.1-1.2-3.2-1.9c0.7-1,1.2-2.5,2.2-2.7
			c2.4-0.8,4.8-1.1,8.1-1.8c-1.7-1.1-2.7-1.8-3.9-2.4c-13.7-7.7-27.4-15.5-41.2-23.1c-0.4-0.2-0.8-0.4-1.1-0.6
			c-1.8-0.8-2.8-2.1-1.8-3.9c1-1.9,2.6-1.4,4.2-0.5c7.6,4.3,15.1,8.5,22.7,12.8c6.8,3.9,13.6,7.7,20.5,11.4
			C174.4,110,175.3,110.4,177.1,111.4z"/>
	</g>
	<g>
		<path class="st1" d="M97,145.1c-1.5,0.6-2.9,1.5-4.4,1.7c-2.7,0.3-5.5,0.1-8.7,0.1c-0.1,1.7-0.3,3.1-0.3,4.4
			c0,7.7,0.1,15.4,0.1,23.1c0,1.8,0.3,3.8-2.5,3.7c-2.6-0.1-2.2-2-2.2-3.6c0-7.8,0-15.7,0-23.5c0-1.1,0-2.4,0-4
			c-3.4,0-6.4-0.1-9.5,0c-1.9,0.1-3.4-0.6-3.4-2.6c0-2.2,1.7-2.6,3.5-2.5c3,0.1,5.9,0,9.4,0c0-3.6-0.1-7,0.1-10.4
			c0.1-1.4,0.8-2.8,1.2-4.2c0.7,0,1.3,0,2,0c0.4,1.1,1.2,2.3,1.3,3.5c0.2,2.5,0.3,5,0,7.6c-0.3,3,0.9,3.7,3.7,3.7
			c3.2,0,6.3,0.8,9.5,1.1C97,143.8,97,144.4,97,145.1z"/>
	</g>
</g>
</svg>
